<svg width="95" height="95" viewBox="0 0 95 95" fill="none" xmlns="http://www.w3.org/2000/svg">
<path d="M88.5154 50.3528L88.4158 50.3139C88.8908 48.9308 89.0234 47.3638 88.7749 45.7993C88.5317 44.2704 87.957 42.9077 87.1263 41.8115C89.3017 40.6789 90.9251 38.4504 91.5105 35.7568C92.5024 31.1875 90.9337 26.4694 87.314 23.1366C83.793 19.8948 79.0236 18.5411 74.6044 19.4523C75.424 16.4948 74.5419 13.0278 72.2925 10.5073C70.2488 8.2173 67.1717 6.68493 63.6276 6.19281C61.483 5.8948 58.3456 5.87513 55.5775 7.4712C53.0391 8.93559 51.449 11.5292 51.4559 14.1416L51.4507 14.1664V44.0113V44.0121V78.2032C51.4264 78.2887 51.4268 78.3742 51.4507 78.4554V85.7453H51.4516C51.3229 87.9259 52.9412 91.1967 54.7985 92.5051C56.9213 94.0015 59.736 94.7754 62.8144 94.7754C64.5272 94.7754 66.3217 94.536 68.1234 94.0485C71.9047 93.0267 75.6292 89.8969 78.3416 85.4589C79.9578 82.8123 80.6488 79.9134 80.2866 77.2839C80.2618 77.1044 80.231 76.9291 80.196 76.7538C80.8001 76.9162 81.4102 76.9847 82.0139 76.9847C85.0885 76.9847 87.984 75.1718 88.9515 74.4963C92.8312 71.7945 95.0909 67.2299 94.9968 62.286C94.9032 57.3567 92.4802 52.896 88.5154 50.3528" fill="#105650"/>
<path d="M43.5489 80.7082V73.4183C43.5724 73.3371 43.5732 73.2516 43.5489 73.1661V38.9755V38.9746V9.12926L43.5437 9.10445C43.5506 6.4925 41.9605 3.89892 39.4221 2.43453C36.6536 0.838024 33.5166 0.858119 31.3716 1.15613C27.8279 1.64825 24.7508 3.18062 22.7071 5.47063C20.4577 7.99109 19.5756 11.4582 20.3953 14.4156C15.976 13.5045 11.2062 14.8586 7.68563 18.0999C4.06549 21.4327 2.4972 26.1508 3.48914 30.7201C4.07447 33.4138 5.69791 35.6422 7.87333 36.7748C7.04216 37.8711 6.46752 39.2337 6.2251 40.7626C5.97626 42.3271 6.1088 43.8941 6.58381 45.2773L6.48377 45.3162C2.51986 47.8593 0.0964602 52.32 0.0028247 57.2493C-0.0912383 62.1932 2.16884 66.7578 6.04809 69.4604C7.01522 70.1343 9.91066 71.9518 12.9857 71.9518C13.5889 71.9518 14.1995 71.8791 14.8032 71.7167C14.7686 71.892 14.7378 72.0715 14.713 72.2468C14.3513 74.8763 15.0418 77.7752 16.658 80.4218C19.3704 84.8598 23.0949 87.9896 26.8762 89.0114C28.6784 89.4988 30.4724 89.7383 32.1852 89.7383C35.2632 89.7383 38.0783 88.9644 40.2011 87.4679C42.0584 86.1596 43.6767 82.8888 43.5484 80.7082H43.5489" fill="#F3F6FA"/>
<path d="M42.2614 89.4951C39.1778 91.6714 34.4828 92.193 29.7031 90.9018C26.1454 89.9398 22.6184 86.9597 20.027 82.7183C18.5207 80.2555 17.8747 77.5662 18.2082 75.1505C18.5814 72.4355 20.2801 70.0591 22.5355 69.0911C22.6244 69.0531 22.6881 68.9855 22.7356 68.909C23.3137 69.393 23.9558 69.7974 24.6468 70.0916C25.6058 70.4995 26.6512 70.6996 27.6991 70.6996C29.2824 70.6996 30.8712 70.243 32.174 69.3579C32.3826 69.216 32.4373 68.9312 32.2954 68.7221C32.1534 68.5131 31.8687 68.4583 31.6592 68.6007C29.7459 69.9005 27.1339 70.1549 25.0055 69.2493C22.8771 68.3433 21.2498 66.2846 20.8599 64.0044C20.47 61.7243 21.3212 59.2419 23.0276 57.6804C23.214 57.5098 23.2269 57.2199 23.0563 57.0335C22.8857 56.8471 22.5962 56.8343 22.4098 57.0049C20.4789 58.7711 19.5165 61.5793 19.9577 64.1588C20.2215 65.7036 20.9903 67.156 22.0797 68.2946C20.0338 69.21 18.4095 71.1396 17.663 73.4488L17.6404 73.4531C14.2182 74.7229 10.2838 72.2687 9.1593 71.485C5.53104 68.9577 3.41761 64.68 3.50612 60.0427C3.59377 55.4426 5.83845 51.2828 9.51247 48.8996L9.53599 48.9526C10.3971 50.7172 11.8893 52.0482 13.6294 52.6053C14.2156 52.7934 14.827 52.8845 15.435 52.8845C16.7575 52.8841 18.0602 52.4531 19.0351 51.645C19.23 51.4838 19.257 51.1952 19.0958 51.0007C18.9342 50.8057 18.6456 50.7788 18.451 50.9399C17.2624 51.925 15.4795 52.2367 13.9082 51.7335C12.4271 51.2593 11.1 50.0694 10.3586 48.5512C9.67024 47.1407 9.44235 45.4116 9.71684 43.6821C10.0285 41.7218 10.9687 40.0004 12.298 38.9593C13.7774 37.8006 15.7967 37.5047 17.324 38.223C17.5531 38.3308 17.8255 38.2325 17.9332 38.0037C18.041 37.775 17.9427 37.5022 17.7139 37.3944C15.8814 36.5325 13.4785 36.872 11.7336 38.2384C11.5023 38.4197 11.2864 38.6211 11.0782 38.8323C9.04557 37.8605 7.51662 35.8099 6.97191 33.3018C6.04967 29.0532 7.51534 24.6596 10.8939 21.5491C14.3439 18.3723 19.0633 17.1256 23.3449 18.2137C22.0968 19.8705 21.9117 22.2546 22.9755 24.0627C23.0605 24.2077 23.2136 24.2885 23.3705 24.2885C23.4492 24.2885 23.5291 24.2679 23.6023 24.2252C23.8199 24.0969 23.8926 23.8164 23.7647 23.5988C22.7929 21.9463 23.1144 19.6122 24.4971 18.2847C25.8799 16.9571 28.2255 16.7305 29.8369 17.769C30.0494 17.9059 30.3325 17.8447 30.4693 17.6322C30.6065 17.4197 30.545 17.1363 30.3325 16.9994C28.4191 15.7664 25.7696 15.9754 24.055 17.4561L23.9819 17.4368C23.9824 17.3868 23.9802 17.3368 23.9635 17.2868C23.0546 14.5555 23.8451 11.2462 25.9782 8.85572C27.8774 6.72776 30.7566 5.30141 34.0856 4.83879C36.0878 4.56045 39.0094 4.53693 41.5521 6.00346C43.8527 7.33061 45.3248 9.78907 45.2149 12.1201L45.2209 12.1586V24.9961C42.9934 25.5305 40.7525 25.3933 38.8969 24.5984C36.8053 23.7027 35.2306 21.9732 34.6837 19.9727C34.1091 17.867 34.8022 15.4919 36.3705 14.1972C36.5654 14.0365 36.5928 13.7478 36.432 13.5529C36.2708 13.3579 35.9827 13.3305 35.7873 13.4913C33.9218 15.0318 33.1231 17.7336 33.8008 20.2138C34.4199 22.4816 36.1905 24.4355 38.536 25.4403C39.7674 25.9675 41.148 26.2339 42.582 26.2339C43.4491 26.2339 44.3359 26.1304 45.2209 25.9341V41.6598C44.217 44.0447 41.3592 45.8003 38.8075 45.5848C36.2512 45.3684 33.9124 43.3178 33.3613 40.8128C34.3284 39.9042 35.0788 38.7656 35.4948 37.4915C36.4376 34.6038 35.588 31.262 33.3797 29.1755C33.1954 29.0019 32.9059 29.0104 32.7324 29.1939C32.5588 29.3777 32.5669 29.6676 32.7507 29.8412C34.676 31.6604 35.4465 34.6893 34.6243 37.2072C33.8021 39.7255 31.3928 41.7162 28.765 42.0484C26.1368 42.3811 23.3081 41.0531 21.8843 38.8191C21.7484 38.6057 21.4657 38.5429 21.2524 38.6788C21.039 38.8148 20.9766 39.0978 21.1122 39.3112C22.5723 41.6029 25.224 43.0168 27.9245 43.0168C28.2426 43.0168 28.5619 42.9972 28.88 42.957C30.2269 42.7864 31.501 42.2515 32.5848 41.4563C33.3857 44.1691 35.8963 46.2577 38.7302 46.4972C38.8935 46.5109 39.0577 46.5177 39.2227 46.5177C41.461 46.5177 43.8173 45.2701 45.2209 43.447V74.7999C43.1079 72.7348 39.7242 71.9695 36.9708 73.0726C33.8051 74.3381 31.7413 77.9724 32.2719 81.3415C32.3078 81.5682 32.5023 81.7263 32.7238 81.7263L32.7956 81.7221C33.0453 81.6836 33.2155 81.4484 33.1762 81.1962C32.7093 78.2332 34.5255 75.0393 37.3111 73.9234C40.0428 72.8288 43.4774 73.8251 45.2209 76.1937V83.4836L45.2239 83.5007L45.2222 83.5135C45.3347 85.1896 43.9904 88.2808 42.2614 89.4951V89.4951ZM46.1368 76.1937C46.1603 76.1125 46.1611 76.027 46.1368 75.9415V41.7513V41.7504V11.9051L46.1316 11.8803C46.1385 9.26831 44.5484 6.67474 42.01 5.21035C39.2415 3.61384 36.1045 3.63393 33.9594 3.93194C30.4158 4.42406 27.3387 5.95644 25.295 8.24645C23.0456 10.7669 22.1635 14.234 22.9832 17.1914C18.5639 16.2803 13.794 17.6339 10.2735 20.8757C6.65338 24.2085 5.08509 28.9266 6.07703 33.496C6.66236 36.1896 8.2858 38.418 10.4612 39.5506C9.63005 40.6469 9.05541 42.0095 8.81298 43.5385C8.56414 45.1029 8.69669 46.6699 9.1717 48.0531L9.07166 48.092C5.10775 50.6351 2.68435 55.0958 2.59072 60.0251C2.49665 64.969 4.75673 69.5336 8.63597 72.2345C9.60311 72.9101 12.4985 74.7272 15.5735 74.7272C16.1768 74.7272 16.7874 74.6545 17.3911 74.492C17.3565 74.6673 17.3257 74.8469 17.3009 75.0222C16.9392 77.6517 17.6297 80.5548 19.2454 83.1972C21.9583 87.6352 25.6828 90.765 29.4641 91.7868C31.2658 92.2742 33.0599 92.5137 34.7731 92.5137C37.8511 92.5137 40.6661 91.7398 42.789 90.2476C44.6463 88.9393 46.2642 85.6642 46.1363 83.4879L46.1368 83.4836V76.1937" fill="#7C8C9C"/>
<path d="M35.5054 61.75C37.8203 61.75 40.1222 60.4263 41.2442 58.3967C42.4559 56.2041 42.2378 53.2843 40.7131 51.2966C40.5592 51.0957 40.2719 51.058 40.0713 51.2115C39.8704 51.3659 39.8328 51.6532 39.9867 51.8537C41.2963 53.5614 41.484 56.0699 40.4429 57.9537C39.4018 59.8375 37.1789 61.0133 35.0351 60.8128C32.8922 60.6123 30.925 59.0448 30.2512 57.0011C30.1716 56.7608 29.9125 56.63 29.6731 56.7095C29.4328 56.7886 29.3024 57.0477 29.3815 57.2876C30.1657 59.6669 32.4557 61.4913 34.9496 61.7244C35.1348 61.7415 35.3199 61.75 35.5054 61.75" fill="#7C8C9C"/>
<path d="M86.1672 71.485C85.0431 72.2687 81.1083 74.7272 77.6865 73.4531L77.6635 73.4488C76.9169 71.1396 75.2927 69.21 73.2468 68.2946C74.3362 67.156 75.1054 65.7036 75.3692 64.1588C75.8104 61.5793 74.8476 58.7711 72.9171 57.0049C72.7307 56.8343 72.4413 56.8471 72.2707 57.0335C72.0996 57.2199 72.1125 57.5098 72.2989 57.6804C74.0061 59.2419 74.8565 61.7243 74.4666 64.0044C74.0771 66.2846 72.4498 68.3433 70.321 69.2493C68.193 70.1549 65.5811 69.9005 63.6677 68.6007C63.4582 68.4583 63.1735 68.5126 63.0315 68.7221C62.8896 68.9312 62.9439 69.216 63.153 69.3579C64.4557 70.243 66.0445 70.6996 67.6282 70.6996C68.6757 70.6996 69.7211 70.4995 70.6797 70.0916C71.3711 69.7974 72.0133 69.393 72.5913 68.909C72.6388 68.9855 72.7025 69.0531 72.7914 69.0911C75.0468 70.0591 76.7451 72.4355 77.1187 75.1505C77.4522 77.5662 76.8062 80.2555 75.2999 82.7183C72.7085 86.9597 69.1815 89.9398 65.6238 90.9018C60.8441 92.193 56.1491 91.6671 53.0651 89.4951C51.3361 88.2808 49.9923 85.1896 50.1047 83.5135L50.103 83.5007L50.106 83.4836V76.1937C51.8496 73.8251 55.2837 72.8288 58.0158 73.9234C60.8014 75.0393 62.6172 78.2332 62.1503 81.1962C62.111 81.4484 62.2816 81.6836 62.5313 81.7221L62.6031 81.7263C62.8242 81.7263 63.0196 81.5682 63.0546 81.3415C63.5856 77.9724 61.5218 74.3381 58.3562 73.0726C55.6027 71.9695 52.2186 72.7348 50.106 74.7999V43.447C51.5097 45.2701 53.8655 46.5177 56.1038 46.5177C56.2688 46.5177 56.433 46.5109 56.5963 46.4972C59.4302 46.2577 61.9413 44.1691 62.7421 41.4563C63.8255 42.2515 65.1001 42.7864 66.4469 42.957C66.765 42.9972 67.0839 43.0168 67.4025 43.0168C70.1025 43.0168 72.7547 41.6025 74.2148 39.3112C74.3507 39.0978 74.2879 38.8148 74.0745 38.6788C73.8616 38.5429 73.5781 38.6057 73.4426 38.8191C72.0193 41.0531 69.1901 42.3811 66.5619 42.0484C63.9341 41.7162 61.5244 39.7255 60.7022 37.2072C59.88 34.6893 60.6509 31.6604 62.5762 29.8412C62.7596 29.6676 62.7682 29.3777 62.5946 29.1939C62.421 29.0104 62.1311 29.0019 61.9472 29.1755C59.7393 31.262 58.8889 34.6038 59.8317 37.4915C60.2481 38.7656 60.9985 39.9042 61.9656 40.8128C61.4145 43.3178 59.0758 45.3684 56.5194 45.5848C53.9664 45.8007 51.1095 44.0447 50.106 41.6598V25.9341C50.991 26.1304 51.8778 26.2339 52.7449 26.2339C54.1785 26.2339 55.5591 25.9675 56.7904 25.4403C59.1365 24.4355 60.9066 22.4816 61.5261 20.2138C62.2038 17.7336 61.4051 15.0318 59.5392 13.4913C59.3447 13.3305 59.0557 13.3579 58.8949 13.5529C58.7337 13.7478 58.7615 14.0365 58.9565 14.1972C60.5248 15.4919 61.2183 17.867 60.6428 19.9727C60.0963 21.9732 58.5216 23.7027 56.43 24.5984C54.5744 25.3933 52.3336 25.5305 50.106 24.9961V12.1586L50.1115 12.1201C50.0021 9.78907 51.4737 7.33061 53.7744 6.00346C56.3176 4.53693 59.2387 4.56045 61.2413 4.83879C64.5703 5.30141 67.4495 6.72776 69.3487 8.85572C71.4818 11.2462 72.2724 14.5555 71.3634 17.2868C71.3467 17.3368 71.3441 17.3868 71.345 17.4368L71.2723 17.4561C69.5574 15.9754 66.9074 15.7664 64.994 16.9994C64.7815 17.1363 64.7204 17.4197 64.8572 17.6322C64.9944 17.8447 65.2775 17.9063 65.4904 17.769C67.101 16.7305 69.4466 16.9571 70.8294 18.2847C72.2125 19.6122 72.534 21.9463 71.5622 23.5988C71.4339 23.8164 71.5066 24.0969 71.7247 24.2252C71.7978 24.2679 71.8773 24.2885 71.9564 24.2885C72.1133 24.2885 72.2664 24.2077 72.3515 24.0627C73.4148 22.2546 73.2297 19.8705 71.9816 18.2137C76.2636 17.1256 80.983 18.3723 84.4334 21.5491C87.8116 24.6596 89.2777 29.0532 88.355 33.3018C87.8103 35.8099 86.2809 37.8605 84.2487 38.8323C84.0405 38.6211 83.8246 38.4197 83.5933 38.2384C81.8484 36.872 79.4455 36.5325 77.613 37.3944C77.3843 37.5022 77.2859 37.775 77.3937 38.0037C77.5014 38.2325 77.7738 38.3308 78.0025 38.223C79.5298 37.5047 81.5495 37.8006 83.0289 38.9593C84.3578 40.0004 85.2988 41.7218 85.6097 43.6821C85.885 45.4116 85.6567 47.1407 84.9683 48.5512C84.2265 50.0694 82.8998 51.2593 81.4183 51.7335C79.847 52.2367 78.0645 51.925 76.8755 50.9399C76.6809 50.7788 76.3923 50.8057 76.2307 51.0007C76.0699 51.1952 76.0969 51.4838 76.2914 51.645C77.2663 52.4531 78.5695 52.8845 79.8915 52.8845C80.4995 52.8845 81.1113 52.7934 81.6975 52.6053C83.4376 52.0482 84.9294 50.7172 85.7909 48.9526L85.814 48.8996C89.4885 51.2828 91.7332 55.4426 91.8208 60.0427C91.9089 64.68 89.7959 68.9577 86.1672 71.485V71.485ZM86.2548 48.092L86.1552 48.0531C86.6302 46.6699 86.7628 45.1029 86.5144 43.5385C86.2711 42.0095 85.6964 40.6469 84.8657 39.5506C87.0411 38.418 88.6646 36.1896 89.2495 33.496C90.2418 28.9266 88.6731 24.2085 85.0534 20.8757C81.5324 17.6339 76.763 16.2803 72.3438 17.1914C73.1634 14.234 72.2813 10.7669 70.0315 8.24645C67.9882 5.95644 64.9111 4.42406 61.367 3.93194C59.2224 3.63393 56.0854 3.61384 53.317 5.21035C50.7785 6.67474 49.1884 9.26831 49.1953 11.8803L49.1902 11.9051V41.7504V41.7513V75.9415C49.1654 76.027 49.1662 76.1125 49.1902 76.1937V83.4836L49.191 83.4879C49.0623 85.6642 50.6806 88.9393 52.5379 90.2476C54.6608 91.7398 57.4754 92.5137 60.5538 92.5137C62.2666 92.5137 64.0611 92.2742 65.8628 91.7868C69.6442 90.765 73.3686 87.6352 76.0811 83.1972C77.6972 80.5548 78.3882 77.6517 78.026 75.0222C78.0012 74.8469 77.9705 74.6673 77.9358 74.492C78.5395 74.6545 79.1497 74.7272 79.7534 74.7272C82.828 74.7272 85.7234 72.9101 86.6909 72.2345C90.5706 69.5336 92.8303 64.969 92.7362 60.0251C92.6421 55.0958 90.2196 50.6351 86.2548 48.092" fill="#7C8C9C"/>
<path d="M65.6538 56.7095C65.4139 56.63 65.1548 56.7608 65.0757 57.0011C64.4019 59.0448 62.4347 60.6123 60.2917 60.8128C58.1484 61.0137 55.9246 59.8375 54.884 57.9537C53.8429 56.0699 54.0301 53.5614 55.3402 51.8537C55.4941 51.6532 55.4561 51.3659 55.2555 51.2115C55.055 51.058 54.7673 51.0957 54.6138 51.2966C53.0891 53.2843 52.8706 56.2041 54.0827 58.3967C55.2046 60.4267 57.5062 61.75 59.8214 61.75C60.0066 61.75 60.1921 61.7415 60.3768 61.7244C62.8712 61.4913 65.1612 59.6669 65.9454 57.2876C66.0245 57.0477 65.8941 56.7886 65.6538 56.7095" fill="#7C8C9C"/>
</svg>
