<svg width="95" height="88" viewBox="0 0 95 88" fill="none" xmlns="http://www.w3.org/2000/svg">
<path d="M82.4277 11.9998H78.5464V8.11855C78.5464 7.77628 78.2692 7.49902 77.9269 7.49902H75.678C75.3357 7.49902 75.0584 7.77628 75.0584 8.11855V11.9998H71.1771C70.8353 11.9998 70.5576 12.2771 70.5576 12.6194V14.8683C70.5576 15.2102 70.8353 15.4878 71.1771 15.4878H75.0584V19.3688C75.0584 19.711 75.3357 19.9883 75.678 19.9883H77.9269C78.2692 19.9883 78.5464 19.711 78.5464 19.3688V15.4878H82.4277C82.77 15.4878 83.0472 15.2102 83.0472 14.8683V12.6194C83.0472 12.2771 82.77 11.9998 82.4277 11.9998Z" fill="#55C187"/>
<path d="M6.52354 73.4886H4.39065V71.3554C4.39065 71.1673 4.23789 71.0149 4.04986 71.0149H2.81413C2.6261 71.0149 2.47332 71.1673 2.47332 71.3554V73.4886H0.340426C0.152403 73.4886 0 73.641 0 73.829V75.0648C0 75.2528 0.152403 75.4052 0.340426 75.4052H2.47332V77.5385C2.47332 77.7265 2.6261 77.8789 2.81413 77.8789H4.04986C4.23789 77.8789 4.39065 77.7265 4.39065 77.5385V75.4052H6.52354C6.71157 75.4052 6.86397 75.2528 6.86397 75.0648V73.829C6.86397 73.641 6.71157 73.4886 6.52354 73.4886Z" fill="#55C187"/>
<path d="M14.9813 60.8528H12.1088V57.9803C12.1088 57.7269 11.9035 57.5216 11.6504 57.5216H9.98579C9.7324 57.5216 9.52711 57.7269 9.52711 57.9803V60.8528H6.65497C6.40158 60.8528 6.19629 61.0581 6.19629 61.3115V62.9758C6.19629 63.2292 6.40158 63.4344 6.65497 63.4344H9.52711V66.3069C9.52711 66.56 9.7324 66.7656 9.98579 66.7656H11.6504C11.9035 66.7656 12.1088 66.56 12.1088 66.3069V63.4344H14.9813C15.2347 63.4344 15.4399 63.2292 15.4399 62.9758V61.3115C15.4399 61.0581 15.2347 60.8528 14.9813 60.8528Z" fill="#55C187"/>
<path d="M94.6786 2.8914H92.6613V0.874555C92.6613 0.696446 92.5174 0.55249 92.3396 0.55249H91.1707C90.993 0.55249 90.8487 0.696446 90.8487 0.874555V2.8914H88.8318C88.6541 2.8914 88.5098 3.03572 88.5098 3.21346V4.38199C88.5098 4.5601 88.6541 4.70406 88.8318 4.70406H90.8487V6.72128C90.8487 6.89902 90.993 7.04297 91.1707 7.04297H92.3396C92.5174 7.04297 92.6613 6.89902 92.6613 6.72128V4.70406H94.6786C94.8563 4.70406 95.0006 4.5601 95.0006 4.38199V3.21346C95.0006 3.03572 94.8563 2.8914 94.6786 2.8914Z" fill="#55C187"/>
<path d="M65.8373 8.13258H62.9641V5.25934C62.9641 5.00595 62.7588 4.80067 62.5054 4.80067H60.8404C60.587 4.80067 60.3817 5.00595 60.3817 5.25934V8.13258H57.5085C57.2551 8.13258 57.0498 8.33786 57.0498 8.59125V10.2563C57.0498 10.5093 57.2551 10.715 57.5085 10.715H60.3817V13.5882C60.3817 13.8416 60.587 14.0469 60.8404 14.0469H62.5054C62.7588 14.0469 62.9641 13.8416 62.9641 13.5882V10.715H65.8373C66.0907 10.715 66.296 10.5093 66.296 10.2563V8.59125C66.296 8.33786 66.0907 8.13258 65.8373 8.13258Z" fill="#55C187"/>
<path d="M87.4574 49.4247L87.3726 49.3917C87.7754 48.2198 87.8874 46.8919 87.677 45.5666C87.471 44.271 86.984 43.1164 86.28 42.1877C88.1236 41.2281 89.4989 39.3397 89.9946 37.0574C90.8356 33.186 89.5062 29.1883 86.4391 26.3643C83.456 23.6177 79.4146 22.4709 75.6703 23.2428C76.3647 20.7368 75.6174 17.7993 73.7115 15.6635C71.98 13.7234 69.3726 12.4252 66.3701 12.008C64.5527 11.7554 61.8946 11.7388 59.5491 13.0914C57.3982 14.3322 56.0512 16.5294 56.0567 18.7427L56.0527 18.7636V44.0517V44.0521V73.0217C56.0314 73.0929 56.0325 73.1653 56.0527 73.2354V79.4119L56.0531 79.4138C55.9443 81.2587 57.3152 84.0328 58.8888 85.1415C60.6875 86.4085 63.0724 87.0625 65.6808 87.0625C67.1318 87.0625 68.6525 86.8598 70.179 86.4474C73.3832 85.5814 76.5388 82.9286 78.837 79.1688C80.2064 76.9291 80.7917 74.4697 80.4847 72.2443C80.4642 72.093 80.4377 71.9428 80.4084 71.7937C80.9203 71.931 81.437 71.9912 81.9485 71.9912C84.5537 71.9912 87.0068 70.4529 87.8265 69.8822C91.1139 67.5921 93.0287 63.7244 92.949 59.5358C92.8693 55.3592 90.8165 51.5796 87.4574 49.4247" fill="#105650"/>
<path d="M49.3571 75.1443V68.9678C49.3769 68.8981 49.378 68.8257 49.3571 68.7541V39.7845V39.7841V14.4964L49.3527 14.4751C49.3582 12.2618 48.0112 10.0646 45.8603 8.82377C43.5148 7.47124 40.8571 7.48814 39.0393 7.74043C36.0368 8.1576 33.4294 9.45578 31.6979 11.3959C29.792 13.5317 29.0447 16.4692 29.7391 18.9752C25.9948 18.2033 21.953 19.3505 18.9704 22.0967C15.9028 24.9207 14.5738 28.9184 15.4148 32.7902C15.9105 35.0722 17.2859 36.9605 19.1294 37.9201C18.4254 38.8488 17.9384 40.0034 17.7328 41.299C17.522 42.6243 17.634 43.9522 18.0368 45.1245L17.952 45.1571C14.5929 47.3121 12.5401 51.0916 12.4604 55.2682C12.3807 59.4568 14.2958 63.3246 17.5829 65.6146C18.4022 66.1857 20.8554 67.724 23.4613 67.724C23.9721 67.724 24.4891 67.6634 25.0011 67.5261C24.9717 67.6752 24.9452 67.825 24.9247 67.9767C24.618 70.2021 25.203 72.6615 26.5724 74.9012C28.8706 78.661 32.0262 81.3139 35.2304 82.1798C36.7573 82.5922 38.2773 82.7949 39.729 82.7949C42.3367 82.7949 44.7219 82.1405 46.5206 80.8739C48.0942 79.7652 49.4651 76.9912 49.3567 75.1462L49.3571 75.1443" fill="#F3F6FA"/>
<path d="M48.2657 82.5913C45.6528 84.4318 41.6746 84.8769 37.6251 83.7826C34.6105 82.9677 31.6223 80.4404 29.4262 76.8481C28.1501 74.7608 27.6029 72.4828 27.8853 70.4344C28.2019 68.1366 29.6411 66.1216 31.5518 65.3012C31.6274 65.2689 31.6811 65.2119 31.7215 65.1469C32.2113 65.5571 32.7552 65.8998 33.341 66.1491C34.1533 66.4947 35.039 66.6643 35.927 66.664C37.2685 66.664 38.6148 66.2773 39.7184 65.5274C39.8957 65.4069 39.9416 65.166 39.8212 64.9887C39.7011 64.8116 39.4598 64.7654 39.2824 64.8858C37.6611 65.9872 35.4482 66.2027 33.6447 65.4352C31.8412 64.6677 30.4626 62.9233 30.1324 60.9913C29.8019 59.0593 30.5232 56.9562 31.969 55.633C32.1269 55.4883 32.1379 55.243 31.9932 55.0851C31.8485 54.9268 31.6032 54.9162 31.4453 55.0605C29.8096 56.5573 28.994 58.9367 29.3675 61.1221C29.5915 62.4309 30.2426 63.6618 31.1658 64.6266C29.4325 65.4022 28.0557 67.0371 27.4237 68.9948L27.4043 68.9981C24.5046 70.0748 21.1712 67.9934 20.2182 67.3298C17.1441 65.1884 15.3535 61.5638 15.4284 57.6348C15.5026 53.737 17.4045 50.2127 20.5175 48.1932L20.5374 48.238C21.2671 49.733 22.5314 50.8612 24.0059 51.3331C24.5024 51.4921 25.0205 51.5696 25.5358 51.5696C26.6562 51.5692 27.7601 51.2038 28.586 50.5193C28.7513 50.383 28.774 50.1385 28.6374 49.9732C28.5008 49.8083 28.2562 49.7855 28.0914 49.9222C27.084 50.7565 25.5732 51.0206 24.2424 50.5946C22.9872 50.1924 21.8627 49.1844 21.2347 47.8976C20.6512 46.7026 20.458 45.2377 20.6905 43.7725C20.9545 42.1115 21.7518 40.6528 22.8777 39.7707C24.1311 38.7891 25.8424 38.5383 27.1362 39.1472C27.3305 39.2382 27.5611 39.1549 27.6525 38.961C27.7436 38.7674 27.6606 38.5361 27.4663 38.445C25.9137 37.7146 23.8777 38.0021 22.3992 39.16C22.2035 39.3135 22.0206 39.4843 21.8443 39.6631C20.122 38.8398 18.8264 37.102 18.3648 34.9772C17.5833 31.3772 18.8253 27.6546 21.6879 25.0193C24.6111 22.3275 28.6103 21.2713 32.2378 22.1931C31.1805 23.5967 31.0237 25.6172 31.9246 27.1489C31.9969 27.2719 32.1265 27.3402 32.2595 27.3402C32.3259 27.3402 32.3939 27.323 32.4556 27.2866C32.6403 27.1779 32.702 26.9403 32.5933 26.7556C31.7699 25.3557 32.0424 23.3781 33.2143 22.2533C34.3857 21.1285 36.3729 20.9364 37.7382 21.8163C37.9185 21.9323 38.1583 21.8806 38.2744 21.7006C38.3904 21.5203 38.3387 21.2801 38.1583 21.1645C36.5374 20.1197 34.2921 20.2963 32.8393 21.5512L32.7776 21.5346C32.778 21.4924 32.7758 21.4498 32.7618 21.4076C31.9917 19.0936 32.6616 16.2894 34.4687 14.2641C36.078 12.461 38.5175 11.2524 41.3382 10.8606C43.0348 10.6248 45.51 10.6047 47.6645 11.8474C49.6142 12.9718 50.8613 15.0548 50.7684 17.0298L50.7736 17.0628V27.9396C48.886 28.3924 46.9874 28.2763 45.4149 27.6028C43.6426 26.8441 42.3084 25.3785 41.845 23.6833C41.358 21.8993 41.9456 19.8868 43.2743 18.7899C43.4392 18.6537 43.4627 18.4091 43.3264 18.2439C43.1898 18.0786 42.9456 18.0555 42.7803 18.1921C41.1994 19.4972 40.523 21.7862 41.0969 23.8875C41.6217 25.8092 43.1219 27.4647 45.1093 28.316C46.1526 28.7629 47.3223 28.9884 48.5371 28.9884C49.2719 28.9884 50.0233 28.901 50.7736 28.7346V42.059C49.9227 44.0795 47.5015 45.5671 45.3392 45.3846C43.1729 45.2014 41.1913 43.4636 40.7246 41.341C41.5439 40.5713 42.1799 39.6066 42.5325 38.5273C43.3312 36.0804 42.611 33.2487 40.74 31.4812C40.5843 31.3339 40.3386 31.3409 40.1917 31.4966C40.0444 31.6523 40.0514 31.898 40.2071 32.0449C41.8388 33.5865 42.4913 36.1527 41.7947 38.2864C41.098 40.4196 39.0566 42.1067 36.8301 42.3884C34.6035 42.67 32.2062 41.5445 31.0002 39.6517C30.8853 39.4711 30.6455 39.4182 30.4648 39.5331C30.2841 39.6484 30.2309 39.8882 30.3462 40.0689C31.5834 42.0105 33.8297 43.2088 36.1176 43.2088C36.3875 43.2088 36.6582 43.1919 36.9274 43.1581C38.0687 43.0138 39.1484 42.5602 40.0668 41.8864C40.7451 44.1849 42.8725 45.9546 45.2735 46.1577C45.4123 46.169 45.5511 46.1749 45.691 46.1749C47.5874 46.1749 49.5841 45.1176 50.7736 43.5731V70.1373C48.9829 68.3892 46.1159 67.7392 43.7829 68.6738C41.1006 69.7487 39.3519 72.8262 39.8017 75.6807C39.8318 75.8716 39.9967 76.0082 40.1844 76.0082L40.245 76.0035C40.4569 75.9701 40.6012 75.7714 40.5678 75.5599C40.1722 73.048 41.711 70.3396 44.0712 69.394C46.3858 68.4667 49.2958 69.3139 50.7736 71.3179V77.4963L50.7758 77.5091L50.7743 77.522C50.8698 78.9417 49.7306 81.5593 48.2657 82.5913V82.5913ZM51.5491 71.3198C51.5693 71.2496 51.5701 71.1773 51.5491 71.1057V42.1364V42.1357V16.848L51.5447 16.8271C51.5506 14.6137 50.2032 12.4162 48.0523 11.1753C45.7072 9.82282 43.0488 9.83971 41.2317 10.092C38.2288 10.5092 35.6215 11.8073 33.89 13.7478C31.984 15.8836 31.2367 18.8208 31.9311 21.3271C28.1868 20.5549 24.1451 21.7021 21.1624 24.4486C18.0953 27.2723 16.7662 31.27 17.6068 35.1417C18.1026 37.4237 19.4779 39.312 21.3214 40.272C20.6174 41.2004 20.1305 42.3549 19.9248 43.6505C19.714 44.9763 19.826 46.3042 20.2289 47.476L20.1441 47.5091C16.7853 49.6636 14.7321 53.4432 14.6528 57.6201C14.5727 61.8088 16.4879 65.6765 19.775 67.9662C20.5943 68.5372 23.0474 70.0756 25.6533 70.0756C26.1641 70.0756 26.6815 70.015 27.1931 69.8776C27.1637 70.0267 27.1377 70.1769 27.1167 70.3282C26.8101 72.554 27.3954 75.013 28.7645 77.2528C31.0626 81.0125 34.2187 83.6654 37.4224 84.5314C38.9494 84.9441 40.4693 85.1465 41.921 85.1465C44.5287 85.1465 46.9139 84.4921 48.7126 83.2255C50.2862 82.1172 51.6571 79.3427 51.5488 77.4981L51.5491 77.4963V71.3198" fill="#7C8C9C"/>
<path d="M42.5413 59.0801C44.5027 59.0801 46.4535 57.9586 47.4039 56.2384C48.4307 54.381 48.2456 51.9069 46.954 50.2228C46.8233 50.0527 46.5802 50.0204 46.4101 50.1508C46.2401 50.2815 46.2078 50.5246 46.3382 50.695C47.4479 52.1419 47.6069 54.2671 46.7248 55.8635C45.8428 57.4595 43.9592 58.4558 42.1429 58.2858C40.3273 58.1161 38.6604 56.7878 38.0894 55.0563C38.0221 54.8525 37.8025 54.742 37.5998 54.8092C37.396 54.8764 37.2855 55.0956 37.3527 55.299C38.017 57.3148 39.9575 58.8608 42.0705 59.0584C42.2273 59.0727 42.3841 59.0801 42.5413 59.0801" fill="#7C8C9C"/>
<path d="M85.4671 67.3298C84.5145 67.9934 81.1807 70.0752 78.2814 68.9981L78.2619 68.9948C77.6296 67.0371 76.2532 65.4022 74.5198 64.6266C75.4427 63.6618 76.0941 62.4309 76.3178 61.1221C76.6916 58.9367 75.876 56.5573 74.2404 55.0605C74.0824 54.9162 73.8368 54.9268 73.6921 55.0851C73.5474 55.243 73.5584 55.4883 73.7163 55.633C75.1628 56.9562 75.8834 59.0593 75.5532 60.9913C75.2231 62.9233 73.8441 64.6677 72.0406 65.4352C70.2375 66.2027 68.0242 65.9872 66.4029 64.8858C66.2259 64.7654 65.9846 64.8113 65.8641 64.9887C65.744 65.166 65.7899 65.4069 65.9669 65.5274C67.0709 66.2773 68.4168 66.6643 69.7586 66.664C70.6462 66.664 71.5324 66.4947 72.3443 66.1491C72.9301 65.8998 73.4743 65.5571 73.9638 65.1469C74.0042 65.2119 74.0582 65.2689 74.1339 65.3012C76.0446 66.1216 77.4838 68.1366 77.8003 70.4344C78.0827 72.4828 77.5352 74.7608 76.2591 76.8481C74.0634 80.4404 71.0752 82.9677 68.0606 83.7826C64.0107 84.8769 60.0328 84.4315 57.4196 82.5913C55.9547 81.5593 54.8159 78.9417 54.9114 77.522L54.9095 77.5091L54.9121 77.4963V71.3179C56.3895 69.3139 59.2995 68.4667 61.6141 69.394C63.9747 70.3396 65.5134 73.048 65.1175 75.5599C65.0841 75.7714 65.2288 75.9701 65.44 76.0035L65.5013 76.0082C65.6886 76.0082 65.8538 75.8716 65.8836 75.6807C66.3338 72.8262 64.5851 69.7487 61.9028 68.6738C59.5697 67.7392 56.7024 68.3892 54.9121 70.1373V43.5731C56.1016 45.1176 58.0979 46.1749 59.9943 46.1749C60.1342 46.1749 60.2734 46.169 60.4118 46.1577C62.8128 45.9546 64.9405 44.1849 65.6188 41.8864C66.5369 42.5602 67.6166 43.0138 68.7579 43.1581C69.0275 43.1919 69.2978 43.2088 69.5677 43.2088C71.8556 43.2088 74.1027 42.0105 75.3395 40.0689C75.4548 39.8882 75.4016 39.6484 75.2209 39.5331C75.0406 39.4182 74.8 39.4714 74.6855 39.6517C73.4795 41.5445 71.0821 42.67 68.8552 42.3884C66.6287 42.1067 64.5873 40.4196 63.8906 38.2864C63.194 36.1527 63.8469 33.5865 65.4782 32.0449C65.6339 31.898 65.6408 31.6523 65.4936 31.4966C65.3471 31.3409 65.1014 31.3339 64.9453 31.4812C63.0746 33.2487 62.3541 36.0804 63.1528 38.5273C63.5058 39.6066 64.1418 40.5713 64.9611 41.341C64.494 43.4636 62.5124 45.2014 60.3464 45.3846C58.1831 45.5675 55.7626 44.0795 54.9121 42.059V28.7346C55.662 28.901 56.4134 28.9884 57.1482 28.9884C58.363 28.9884 59.5326 28.7629 60.5763 28.316C62.5638 27.4647 64.0636 25.8092 64.5887 23.8875C65.1627 21.7862 64.4863 19.4972 62.9053 18.1921C62.7401 18.0555 62.4955 18.0786 62.3593 18.2439C62.2226 18.4091 62.2461 18.6537 62.4114 18.7899C63.7401 19.8868 64.3276 21.8993 63.8399 23.6833C63.3772 25.3785 62.0427 26.8441 60.2708 27.6028C58.6983 28.2763 56.7997 28.3924 54.9121 27.9396V17.0628L54.9172 17.0298C54.8243 15.0548 56.0715 12.9718 58.0208 11.8474C60.1753 10.6047 62.6505 10.6248 64.3471 10.8606C67.1678 11.2524 69.6073 12.461 71.2166 14.2641C73.0241 16.2894 73.6939 19.0936 72.9238 21.4076C72.9095 21.4498 72.9077 21.4924 72.908 21.5346L72.8463 21.5512C71.3936 20.2963 69.1483 20.1197 67.527 21.1645C67.347 21.2801 67.2952 21.5203 67.4109 21.7006C67.5273 21.8806 67.7671 21.9323 67.9474 21.8163C69.3121 20.9364 71.2996 21.1285 72.4714 22.2533C73.6429 23.3781 73.9157 25.3557 73.0924 26.7556C72.9837 26.9403 73.0454 27.1779 73.2301 27.2866C73.2918 27.323 73.3594 27.3402 73.4262 27.3402C73.5591 27.3402 73.6888 27.2719 73.7608 27.1489C74.6619 25.6172 74.5051 23.5967 73.4479 22.1931C77.0758 21.2713 81.0742 22.3275 83.9978 25.0193C86.86 27.6546 88.1023 31.3772 87.3205 34.9772C86.8593 37.102 85.5633 38.8398 83.8413 39.6631C83.665 39.4843 83.4822 39.3135 83.2861 39.16C81.8076 38.0021 79.7716 37.7146 78.219 38.445C78.0251 38.5361 77.9421 38.7674 78.0332 38.961C78.1242 39.1549 78.3552 39.2382 78.5491 39.1472C79.8432 38.5383 81.5546 38.7891 82.8076 39.7707C83.9339 40.6528 84.7311 42.1115 84.9948 43.7725C85.2276 45.2377 85.0345 46.7026 84.4509 47.8976C83.8226 49.1844 82.6985 50.1924 81.4433 50.5946C80.1121 51.0206 78.6013 50.7565 77.5943 49.9222C77.4294 49.7855 77.1848 49.8083 77.0479 49.9732C76.9113 50.1385 76.9344 50.383 77.0993 50.5193C77.9252 51.2038 79.0295 51.5696 80.1495 51.5696C80.6648 51.5696 81.1833 51.4921 81.6798 51.3331C83.1542 50.8612 84.4182 49.733 85.1479 48.238L85.1678 48.1932C88.2808 50.2127 90.1831 53.737 90.2573 57.6348C90.3318 61.5638 88.5412 65.1884 85.4671 67.3298V67.3298ZM85.5412 47.5091L85.4568 47.476C85.8593 46.3042 85.9713 44.9763 85.7608 43.6505C85.5552 42.3549 85.0682 41.2004 84.3639 40.272C86.2074 39.312 87.5831 37.4237 88.0788 35.1417C88.9194 31.27 87.5904 27.2723 84.5233 24.4486C81.5402 21.7017 77.4988 20.5549 73.7545 21.3271C74.4489 18.8208 73.7016 15.8836 71.7953 13.7478C70.0638 11.8073 67.4568 10.5092 64.454 10.092C62.6369 9.83971 59.9785 9.82282 57.6333 11.1753C55.4821 12.4162 54.135 14.6137 54.1406 16.8271L54.1365 16.848V42.1357V42.1364V71.1057C54.1156 71.1773 54.1163 71.2496 54.1365 71.3198V77.4963L54.1369 77.4981C54.0282 79.3427 55.3994 82.1172 56.973 83.2255C58.7718 84.4924 61.1562 85.1469 63.7647 85.1465C65.216 85.1465 66.7363 84.9441 68.2629 84.5314C71.467 83.6654 74.6226 81.0125 76.9212 77.2528C78.2906 75.013 78.8756 72.554 78.5689 70.3282C78.548 70.1769 78.5219 70.0267 78.4922 69.8776C79.0041 70.015 79.5212 70.0756 80.0324 70.0756C82.6375 70.0756 85.091 68.5369 85.9107 67.9662C89.1978 65.6765 91.1125 61.8088 91.0329 57.6201C90.9535 53.4432 88.9003 49.6636 85.5412 47.5091" fill="#7C8C9C"/>
<path d="M68.0858 54.8092C67.8828 54.742 67.6632 54.8525 67.5963 55.0563C67.0253 56.7878 65.3584 58.1161 63.5428 58.2858C61.7268 58.4562 59.8425 57.4595 58.9608 55.8635C58.0787 54.2671 58.2374 52.1419 59.3471 50.695C59.4775 50.5246 59.4456 50.2815 59.2755 50.1508C59.1055 50.0204 58.862 50.0527 58.7317 50.2228C57.4401 51.9069 57.255 54.381 58.2818 56.2384C59.2322 57.9586 61.1826 59.0801 63.144 59.0801C63.3012 59.0801 63.4583 59.0727 63.6148 59.0584C65.7282 58.8608 67.6683 57.3148 68.333 55.299C68.3998 55.0956 68.2893 54.8764 68.0858 54.8092" fill="#7C8C9C"/>
<path d="M92.3637 29.6408H86.7825V24.0595C86.7825 23.5671 86.3833 23.1683 85.8912 23.1683H82.6574C82.1649 23.1683 81.7661 23.5671 81.7661 24.0595V29.6408H76.1849C75.6928 29.6408 75.2939 30.0396 75.2939 30.5317V33.7655C75.2939 34.2576 75.6928 34.6568 76.1849 34.6568H81.7661V40.238C81.7661 40.7301 82.1649 41.1289 82.6574 41.1289H85.8912C86.3833 41.1289 86.7825 40.7301 86.7825 40.238V34.6568H92.3637C92.8558 34.6568 93.2546 34.2576 93.2546 33.7655V30.5317C93.2546 30.0396 92.8558 29.6408 92.3637 29.6408Z" fill="#55C187"/>
<path d="M25.192 68.8979H21.3107V65.017C21.3107 64.6747 21.0334 64.3971 20.6912 64.3971H18.4426C18.1 64.3971 17.8227 64.6747 17.8227 65.017V68.8979H13.9418C13.5995 68.8979 13.3223 69.1752 13.3223 69.5174V71.7664C13.3223 72.1087 13.5995 72.3859 13.9418 72.3859H17.8227V76.2672C17.8227 76.6095 18.1 76.8867 18.4426 76.8867H20.6912C21.0334 76.8867 21.3107 76.6095 21.3107 76.2672V72.3859H25.192C25.5342 72.3859 25.8115 72.1087 25.8115 71.7664V69.5174C25.8115 69.1752 25.5342 68.8979 25.192 68.8979Z" fill="#55C187"/>
</svg>
