<svg width="348" height="273" viewBox="0 0 348 273" fill="none" xmlns="http://www.w3.org/2000/svg">
<rect y="18" width="3" height="3" fill="#105650"/>
<rect x="184" y="18" width="3" height="3" fill="#105650"/>
<rect x="92" y="18" width="3" height="3" fill="#105650"/>
<rect x="276" y="18" width="3" height="3" fill="#105650"/>
<rect x="23" y="18" width="3" height="3" fill="#105650"/>
<rect x="207" y="18" width="3" height="3" fill="#105650"/>
<rect x="115" y="18" width="3" height="3" fill="#105650"/>
<rect x="299" y="18" width="3" height="3" fill="#105650"/>
<rect x="46" y="18" width="3" height="3" fill="#105650"/>
<rect x="230" y="18" width="3" height="3" fill="#105650"/>
<rect x="138" y="18" width="3" height="3" fill="#105650"/>
<rect x="322" y="18" width="3" height="3" fill="#105650"/>
<rect x="69" y="18" width="3" height="3" fill="#105650"/>
<rect x="253" y="18" width="3" height="3" fill="#105650"/>
<rect x="161" y="18" width="3" height="3" fill="#105650"/>
<rect x="345" y="18" width="3" height="3" fill="#105650"/>
<rect y="162" width="3" height="3" fill="#105650"/>
<rect x="184" y="162" width="3" height="3" fill="#105650"/>
<rect x="92" y="162" width="3" height="3" fill="#105650"/>
<rect x="276" y="162" width="3" height="3" fill="#105650"/>
<rect x="23" y="162" width="3" height="3" fill="#105650"/>
<rect x="207" y="162" width="3" height="3" fill="#105650"/>
<rect x="115" y="162" width="3" height="3" fill="#105650"/>
<rect x="299" y="162" width="3" height="3" fill="#105650"/>
<rect x="46" y="162" width="3" height="3" fill="#105650"/>
<rect x="230" y="162" width="3" height="3" fill="#105650"/>
<rect x="138" y="162" width="3" height="3" fill="#105650"/>
<rect x="322" y="162" width="3" height="3" fill="#105650"/>
<rect x="69" y="162" width="3" height="3" fill="#105650"/>
<rect x="253" y="162" width="3" height="3" fill="#105650"/>
<rect x="161" y="162" width="3" height="3" fill="#105650"/>
<rect x="345" y="162" width="3" height="3" fill="#105650"/>
<rect y="90" width="3" height="3" fill="#105650"/>
<rect x="184" y="90" width="3" height="3" fill="#105650"/>
<rect x="92" y="90" width="3" height="3" fill="#105650"/>
<rect x="276" y="90" width="3" height="3" fill="#105650"/>
<rect x="23" y="90" width="3" height="3" fill="#105650"/>
<rect x="207" y="90" width="3" height="3" fill="#105650"/>
<rect x="115" y="90" width="3" height="3" fill="#105650"/>
<rect x="299" y="90" width="3" height="3" fill="#105650"/>
<rect x="46" y="90" width="3" height="3" fill="#105650"/>
<rect x="230" y="90" width="3" height="3" fill="#105650"/>
<rect x="138" y="90" width="3" height="3" fill="#105650"/>
<rect x="322" y="90" width="3" height="3" fill="#105650"/>
<rect x="69" y="90" width="3" height="3" fill="#105650"/>
<rect x="253" y="90" width="3" height="3" fill="#105650"/>
<rect x="161" y="90" width="3" height="3" fill="#105650"/>
<rect x="345" y="90" width="3" height="3" fill="#105650"/>
<rect y="234" width="3" height="3" fill="#105650"/>
<rect x="184" y="234" width="3" height="3" fill="#105650"/>
<rect x="92" y="234" width="3" height="3" fill="#105650"/>
<rect x="276" y="234" width="3" height="3" fill="#105650"/>
<rect x="23" y="234" width="3" height="3" fill="#105650"/>
<rect x="207" y="234" width="3" height="3" fill="#105650"/>
<rect x="115" y="234" width="3" height="3" fill="#105650"/>
<rect x="299" y="234" width="3" height="3" fill="#105650"/>
<rect x="46" y="234" width="3" height="3" fill="#105650"/>
<rect x="230" y="234" width="3" height="3" fill="#105650"/>
<rect x="138" y="234" width="3" height="3" fill="#105650"/>
<rect x="322" y="234" width="3" height="3" fill="#105650"/>
<rect x="69" y="234" width="3" height="3" fill="#105650"/>
<rect x="253" y="234" width="3" height="3" fill="#105650"/>
<rect x="161" y="234" width="3" height="3" fill="#105650"/>
<rect x="345" y="234" width="3" height="3" fill="#105650"/>
<rect y="54" width="3" height="3" fill="#105650"/>
<rect x="184" y="54" width="3" height="3" fill="#105650"/>
<rect x="92" y="54" width="3" height="3" fill="#105650"/>
<rect x="276" y="54" width="3" height="3" fill="#105650"/>
<rect x="23" y="54" width="3" height="3" fill="#105650"/>
<rect x="207" y="54" width="3" height="3" fill="#105650"/>
<rect x="115" y="54" width="3" height="3" fill="#105650"/>
<rect x="299" y="54" width="3" height="3" fill="#105650"/>
<rect x="46" y="54" width="3" height="3" fill="#105650"/>
<rect x="230" y="54" width="3" height="3" fill="#105650"/>
<rect x="138" y="54" width="3" height="3" fill="#105650"/>
<rect x="322" y="54" width="3" height="3" fill="#105650"/>
<rect x="69" y="54" width="3" height="3" fill="#105650"/>
<rect x="253" y="54" width="3" height="3" fill="#105650"/>
<rect x="161" y="54" width="3" height="3" fill="#105650"/>
<rect x="345" y="54" width="3" height="3" fill="#105650"/>
<rect y="198" width="3" height="3" fill="#105650"/>
<rect x="184" y="198" width="3" height="3" fill="#105650"/>
<rect x="92" y="198" width="3" height="3" fill="#105650"/>
<rect x="276" y="198" width="3" height="3" fill="#105650"/>
<rect x="23" y="198" width="3" height="3" fill="#105650"/>
<rect x="207" y="198" width="3" height="3" fill="#105650"/>
<rect x="115" y="198" width="3" height="3" fill="#105650"/>
<rect x="299" y="198" width="3" height="3" fill="#105650"/>
<rect x="46" y="198" width="3" height="3" fill="#105650"/>
<rect x="230" y="198" width="3" height="3" fill="#105650"/>
<rect x="138" y="198" width="3" height="3" fill="#105650"/>
<rect x="322" y="198" width="3" height="3" fill="#105650"/>
<rect x="69" y="198" width="3" height="3" fill="#105650"/>
<rect x="253" y="198" width="3" height="3" fill="#105650"/>
<rect x="161" y="198" width="3" height="3" fill="#105650"/>
<rect x="345" y="198" width="3" height="3" fill="#105650"/>
<rect y="126" width="3" height="3" fill="#105650"/>
<rect x="184" y="126" width="3" height="3" fill="#105650"/>
<rect x="92" y="126" width="3" height="3" fill="#105650"/>
<rect x="276" y="126" width="3" height="3" fill="#105650"/>
<rect x="23" y="126" width="3" height="3" fill="#105650"/>
<rect x="207" y="126" width="3" height="3" fill="#105650"/>
<rect x="115" y="126" width="3" height="3" fill="#105650"/>
<rect x="299" y="126" width="3" height="3" fill="#105650"/>
<rect x="46" y="126" width="3" height="3" fill="#105650"/>
<rect x="230" y="126" width="3" height="3" fill="#105650"/>
<rect x="138" y="126" width="3" height="3" fill="#105650"/>
<rect x="322" y="126" width="3" height="3" fill="#105650"/>
<rect x="69" y="126" width="3" height="3" fill="#105650"/>
<rect x="253" y="126" width="3" height="3" fill="#105650"/>
<rect x="161" y="126" width="3" height="3" fill="#105650"/>
<rect x="345" y="126" width="3" height="3" fill="#105650"/>
<rect y="270" width="3" height="3" fill="#105650"/>
<rect x="184" y="270" width="3" height="3" fill="#105650"/>
<rect x="92" y="270" width="3" height="3" fill="#105650"/>
<rect x="276" y="270" width="3" height="3" fill="#105650"/>
<rect x="23" y="270" width="3" height="3" fill="#105650"/>
<rect x="207" y="270" width="3" height="3" fill="#105650"/>
<rect x="115" y="270" width="3" height="3" fill="#105650"/>
<rect x="299" y="270" width="3" height="3" fill="#105650"/>
<rect x="46" y="270" width="3" height="3" fill="#105650"/>
<rect x="230" y="270" width="3" height="3" fill="#105650"/>
<rect x="138" y="270" width="3" height="3" fill="#105650"/>
<rect x="322" y="270" width="3" height="3" fill="#105650"/>
<rect x="69" y="270" width="3" height="3" fill="#105650"/>
<rect x="253" y="270" width="3" height="3" fill="#105650"/>
<rect x="161" y="270" width="3" height="3" fill="#105650"/>
<rect x="345" y="270" width="3" height="3" fill="#105650"/>
<rect width="3" height="3" fill="#105650"/>
<rect x="184" width="3" height="3" fill="#105650"/>
<rect x="92" width="3" height="3" fill="#105650"/>
<rect x="276" width="3" height="3" fill="#105650"/>
<rect x="23" width="3" height="3" fill="#105650"/>
<rect x="207" width="3" height="3" fill="#105650"/>
<rect x="115" width="3" height="3" fill="#105650"/>
<rect x="299" width="3" height="3" fill="#105650"/>
<rect x="46" width="3" height="3" fill="#105650"/>
<rect x="230" width="3" height="3" fill="#105650"/>
<rect x="138" width="3" height="3" fill="#105650"/>
<rect x="322" width="3" height="3" fill="#105650"/>
<rect x="69" width="3" height="3" fill="#105650"/>
<rect x="253" width="3" height="3" fill="#105650"/>
<rect x="161" width="3" height="3" fill="#105650"/>
<rect x="345" width="3" height="3" fill="#105650"/>
<rect y="144" width="3" height="3" fill="#105650"/>
<rect x="184" y="144" width="3" height="3" fill="#105650"/>
<rect x="92" y="144" width="3" height="3" fill="#105650"/>
<rect x="276" y="144" width="3" height="3" fill="#105650"/>
<rect x="23" y="144" width="3" height="3" fill="#105650"/>
<rect x="207" y="144" width="3" height="3" fill="#105650"/>
<rect x="115" y="144" width="3" height="3" fill="#105650"/>
<rect x="299" y="144" width="3" height="3" fill="#105650"/>
<rect x="46" y="144" width="3" height="3" fill="#105650"/>
<rect x="230" y="144" width="3" height="3" fill="#105650"/>
<rect x="138" y="144" width="3" height="3" fill="#105650"/>
<rect x="322" y="144" width="3" height="3" fill="#105650"/>
<rect x="69" y="144" width="3" height="3" fill="#105650"/>
<rect x="253" y="144" width="3" height="3" fill="#105650"/>
<rect x="161" y="144" width="3" height="3" fill="#105650"/>
<rect x="345" y="144" width="3" height="3" fill="#105650"/>
<rect y="72" width="3" height="3" fill="#105650"/>
<rect x="184" y="72" width="3" height="3" fill="#105650"/>
<rect x="92" y="72" width="3" height="3" fill="#105650"/>
<rect x="276" y="72" width="3" height="3" fill="#105650"/>
<rect x="23" y="72" width="3" height="3" fill="#105650"/>
<rect x="207" y="72" width="3" height="3" fill="#105650"/>
<rect x="115" y="72" width="3" height="3" fill="#105650"/>
<rect x="299" y="72" width="3" height="3" fill="#105650"/>
<rect x="46" y="72" width="3" height="3" fill="#105650"/>
<rect x="230" y="72" width="3" height="3" fill="#105650"/>
<rect x="138" y="72" width="3" height="3" fill="#105650"/>
<rect x="322" y="72" width="3" height="3" fill="#105650"/>
<rect x="69" y="72" width="3" height="3" fill="#105650"/>
<rect x="253" y="72" width="3" height="3" fill="#105650"/>
<rect x="161" y="72" width="3" height="3" fill="#105650"/>
<rect x="345" y="72" width="3" height="3" fill="#105650"/>
<rect y="216" width="3" height="3" fill="#105650"/>
<rect x="184" y="216" width="3" height="3" fill="#105650"/>
<rect x="92" y="216" width="3" height="3" fill="#105650"/>
<rect x="276" y="216" width="3" height="3" fill="#105650"/>
<rect x="23" y="216" width="3" height="3" fill="#105650"/>
<rect x="207" y="216" width="3" height="3" fill="#105650"/>
<rect x="115" y="216" width="3" height="3" fill="#105650"/>
<rect x="299" y="216" width="3" height="3" fill="#105650"/>
<rect x="46" y="216" width="3" height="3" fill="#105650"/>
<rect x="230" y="216" width="3" height="3" fill="#105650"/>
<rect x="138" y="216" width="3" height="3" fill="#105650"/>
<rect x="322" y="216" width="3" height="3" fill="#105650"/>
<rect x="69" y="216" width="3" height="3" fill="#105650"/>
<rect x="253" y="216" width="3" height="3" fill="#105650"/>
<rect x="161" y="216" width="3" height="3" fill="#105650"/>
<rect x="345" y="216" width="3" height="3" fill="#105650"/>
<rect y="36" width="3" height="3" fill="#105650"/>
<rect x="184" y="36" width="3" height="3" fill="#105650"/>
<rect x="92" y="36" width="3" height="3" fill="#105650"/>
<rect x="276" y="36" width="3" height="3" fill="#105650"/>
<rect x="23" y="36" width="3" height="3" fill="#105650"/>
<rect x="207" y="36" width="3" height="3" fill="#105650"/>
<rect x="115" y="36" width="3" height="3" fill="#105650"/>
<rect x="299" y="36" width="3" height="3" fill="#105650"/>
<rect x="46" y="36" width="3" height="3" fill="#105650"/>
<rect x="230" y="36" width="3" height="3" fill="#105650"/>
<rect x="138" y="36" width="3" height="3" fill="#105650"/>
<rect x="322" y="36" width="3" height="3" fill="#105650"/>
<rect x="69" y="36" width="3" height="3" fill="#105650"/>
<rect x="253" y="36" width="3" height="3" fill="#105650"/>
<rect x="161" y="36" width="3" height="3" fill="#105650"/>
<rect x="345" y="36" width="3" height="3" fill="#105650"/>
<rect y="180" width="3" height="3" fill="#105650"/>
<rect x="184" y="180" width="3" height="3" fill="#105650"/>
<rect x="92" y="180" width="3" height="3" fill="#105650"/>
<rect x="276" y="180" width="3" height="3" fill="#105650"/>
<rect x="23" y="180" width="3" height="3" fill="#105650"/>
<rect x="207" y="180" width="3" height="3" fill="#105650"/>
<rect x="115" y="180" width="3" height="3" fill="#105650"/>
<rect x="299" y="180" width="3" height="3" fill="#105650"/>
<rect x="46" y="180" width="3" height="3" fill="#105650"/>
<rect x="230" y="180" width="3" height="3" fill="#105650"/>
<rect x="138" y="180" width="3" height="3" fill="#105650"/>
<rect x="322" y="180" width="3" height="3" fill="#105650"/>
<rect x="69" y="180" width="3" height="3" fill="#105650"/>
<rect x="253" y="180" width="3" height="3" fill="#105650"/>
<rect x="161" y="180" width="3" height="3" fill="#105650"/>
<rect x="345" y="180" width="3" height="3" fill="#105650"/>
<rect y="108" width="3" height="3" fill="#105650"/>
<rect x="184" y="108" width="3" height="3" fill="#105650"/>
<rect x="92" y="108" width="3" height="3" fill="#105650"/>
<rect x="276" y="108" width="3" height="3" fill="#105650"/>
<rect x="23" y="108" width="3" height="3" fill="#105650"/>
<rect x="207" y="108" width="3" height="3" fill="#105650"/>
<rect x="115" y="108" width="3" height="3" fill="#105650"/>
<rect x="299" y="108" width="3" height="3" fill="#105650"/>
<rect x="46" y="108" width="3" height="3" fill="#105650"/>
<rect x="230" y="108" width="3" height="3" fill="#105650"/>
<rect x="138" y="108" width="3" height="3" fill="#105650"/>
<rect x="322" y="108" width="3" height="3" fill="#105650"/>
<rect x="69" y="108" width="3" height="3" fill="#105650"/>
<rect x="253" y="108" width="3" height="3" fill="#105650"/>
<rect x="161" y="108" width="3" height="3" fill="#105650"/>
<rect x="345" y="108" width="3" height="3" fill="#105650"/>
<rect y="252" width="3" height="3" fill="#105650"/>
<rect x="184" y="252" width="3" height="3" fill="#105650"/>
<rect x="92" y="252" width="3" height="3" fill="#105650"/>
<rect x="276" y="252" width="3" height="3" fill="#105650"/>
<rect x="23" y="252" width="3" height="3" fill="#105650"/>
<rect x="207" y="252" width="3" height="3" fill="#105650"/>
<rect x="115" y="252" width="3" height="3" fill="#105650"/>
<rect x="299" y="252" width="3" height="3" fill="#105650"/>
<rect x="46" y="252" width="3" height="3" fill="#105650"/>
<rect x="230" y="252" width="3" height="3" fill="#105650"/>
<rect x="138" y="252" width="3" height="3" fill="#105650"/>
<rect x="322" y="252" width="3" height="3" fill="#105650"/>
<rect x="69" y="252" width="3" height="3" fill="#105650"/>
<rect x="253" y="252" width="3" height="3" fill="#105650"/>
<rect x="161" y="252" width="3" height="3" fill="#105650"/>
<rect x="345" y="252" width="3" height="3" fill="#105650"/>
</svg>
