<svg width="95" height="95" viewBox="0 0 95 95" fill="none" xmlns="http://www.w3.org/2000/svg">
<path d="M51.3847 23.9219C57.2838 24.8997 62.5881 28.9436 65.0944 34.374C66.1966 36.7592 66.7805 39.4482 66.3467 42.0401C65.9127 44.6331 64.3635 47.1028 62.0154 48.2845C60.0266 49.2854 57.6889 49.2997 55.4755 49.0581C48.6825 48.3167 42.1562 45.3064 37.1826 40.6216C35.6111 39.1409 34.1521 37.4262 33.5406 35.3554C31.6024 28.7935 40.6727 24.6413 45.8126 23.8869C47.6575 23.6145 49.5443 23.618 51.3847 23.9219Z" fill="#E8EBEF"/>
<path d="M48.878 20.9789C43.1361 20.9789 37.3478 23.4653 33.6097 27.7503C29.2514 32.7476 27.66 39.6063 26.2558 45.6576C26.092 46.3651 25.922 47.0964 25.9977 47.7889C26.0665 48.4182 26.3421 49.0426 26.6085 49.6468L29.0901 55.2737C29.9467 57.2165 30.8519 59.0233 32.4964 59.785C33.2074 60.1139 34.0127 60.2218 34.8655 60.3364C35.8898 60.4736 36.949 60.6154 37.894 61.1668C39.1002 61.8712 40.5529 63.5038 40.6245 67.2835V67.2936C40.6245 67.6728 40.6172 68.0545 40.6098 68.4376C40.5882 69.597 40.5655 70.7959 40.7586 71.9211C40.9933 73.2879 41.1295 73.414 42.3755 73.4178C44.7432 73.4252 47.1535 73.4025 49.4842 73.3805C50.6716 73.3693 51.8586 73.3581 53.0456 73.3508C54.5727 73.341 56.0835 73.194 56.7913 72.19C57.4102 71.3128 57.2031 70.1237 56.9834 68.8651C56.8975 68.372 56.8088 67.8621 56.77 67.362C56.556 64.5892 58.0272 62.0773 59.2991 60.4579C60.1142 59.4207 61.0392 58.4688 61.9336 57.5479C62.6715 56.7887 63.4342 56.0036 64.1176 55.1864C68.697 49.7134 70.2332 41.8319 68.0317 35.1083C65.8016 28.295 59.8718 22.917 52.9251 21.4084C51.5977 21.1186 50.2386 20.9789 48.878 20.9789V20.9789ZM43.3072 74.4941C42.995 74.4941 42.6835 74.4938 42.372 74.4927C40.423 74.4868 39.9879 73.7835 39.6991 72.103C39.4885 70.8773 39.5122 69.6267 39.5349 68.417C39.5423 68.0427 39.5493 67.6693 39.5493 67.2985C39.5206 65.815 39.1966 63.1724 37.352 62.0954C36.5928 61.6522 35.6844 61.5307 34.723 61.4018C33.8283 61.2821 32.9032 61.1581 32.0445 60.7604C30.0602 59.8416 29.0496 57.8457 28.1064 55.7075L25.6248 50.0805C25.3395 49.4334 25.0157 48.7 24.9291 47.9055C24.8335 47.0314 25.0329 46.1727 25.2089 45.4149C26.6414 39.2396 28.2649 32.2412 32.7995 27.0448C37.6736 21.4573 45.8534 18.7683 53.1535 20.3573C60.4658 21.9462 66.7067 27.6071 69.0535 34.7731C71.3678 41.842 69.7541 50.1252 64.9425 55.8761C64.2329 56.7241 63.4559 57.5238 62.7047 58.297C61.8295 59.1979 60.9244 60.1293 60.1445 61.1221C58.9907 62.5909 57.6543 64.8515 57.8421 67.2793C57.8767 67.728 57.9574 68.1907 58.0426 68.6803C58.2902 70.0999 58.5462 71.5677 57.67 72.8099C56.6817 74.2106 54.8668 74.4142 53.0522 74.4257C51.8666 74.433 50.6807 74.4442 49.4944 74.4554C47.4664 74.4746 45.3781 74.4941 43.3072 74.4941" fill="#7C8C9C"/>
<path d="M43.4209 8.32415C43.2438 8.32415 43.0919 8.19144 43.0738 8.00985C43.0542 7.81778 43.1939 7.64665 43.3856 7.62919C44.3069 7.5349 45.2449 7.47206 46.1731 7.44063C46.3669 7.43364 46.5275 7.58727 46.5335 7.77934C46.5398 7.97141 46.3886 8.13208 46.1958 8.13907C45.2836 8.1705 44.362 8.22986 43.4565 8.32415H43.4209ZM51.7177 8.3381H51.6807C50.7762 8.24031 49.8546 8.17747 48.9421 8.14255C48.7493 8.13556 48.5988 7.97493 48.6058 7.78286C48.6128 7.59078 48.7727 7.4406 48.9672 7.44758C49.8958 7.47901 50.8334 7.54539 51.754 7.64317C51.9457 7.66412 52.0851 7.83524 52.0648 8.02731C52.0456 8.20541 51.8944 8.3381 51.7177 8.3381ZM37.9664 9.27052C37.8093 9.27052 37.6668 9.16228 37.6277 9.00513C37.5816 8.81655 37.6958 8.62795 37.8829 8.58255C38.7829 8.35905 39.7031 8.167 40.6177 8.00985C40.8077 7.97493 40.9886 8.10413 41.0214 8.2927C41.0546 8.48478 40.9271 8.6629 40.7371 8.69782C39.8382 8.85148 38.9344 9.04354 38.0502 9.26005L37.9664 9.27052ZM57.169 9.30544L57.0841 9.29497C56.2003 9.07147 55.2972 8.87939 54.3993 8.72224C54.2094 8.68732 54.0826 8.50574 54.1161 8.31716C54.15 8.12509 54.3312 7.99938 54.5209 8.0343C55.4348 8.19494 56.3543 8.39048 57.2535 8.61747C57.4407 8.66287 57.5545 8.85147 57.5074 9.04005C57.4679 9.1972 57.3255 9.30544 57.169 9.30544V9.30544ZM32.6942 10.9712C32.5559 10.9712 32.425 10.8874 32.3702 10.7512C32.2982 10.5731 32.3848 10.3706 32.5636 10.2972C33.4255 9.95152 34.3108 9.63023 35.195 9.34736C35.3783 9.28799 35.5753 9.38579 35.6347 9.57087C35.6937 9.75596 35.5931 9.95151 35.4094 10.0109C34.5405 10.2903 33.671 10.6045 32.8245 10.9468C32.7819 10.9642 32.7375 10.9712 32.6942 10.9712V10.9712ZM62.4314 11.0236C62.3878 11.0236 62.3434 11.0131 62.3001 10.9957C61.4557 10.6534 60.5882 10.3357 59.7218 10.0528C59.5385 9.99342 59.4386 9.79435 59.4983 9.61275C59.5584 9.42767 59.756 9.3299 59.9387 9.38927C60.8205 9.67563 61.7033 10.0004 62.5631 10.3496C62.7419 10.423 62.8278 10.6255 62.7551 10.8036C62.7 10.9398 62.5694 11.0236 62.4314 11.0236V11.0236ZM27.7109 13.3948C27.59 13.3948 27.4723 13.332 27.4077 13.2202C27.3113 13.0526 27.369 12.8396 27.5359 12.7418C28.3408 12.2808 29.172 11.8373 30.0066 11.4322C30.1798 11.3484 30.389 11.4217 30.4735 11.5928C30.5577 11.7675 30.4857 11.977 30.3122 12.0608C29.4922 12.4589 28.6754 12.8919 27.8848 13.3494C27.8299 13.3808 27.7699 13.3948 27.7109 13.3948V13.3948ZM67.3973 13.4577C67.338 13.4577 67.2775 13.4437 67.2224 13.4088C66.4349 12.9548 65.6208 12.5183 64.8033 12.1167C64.6301 12.0329 64.5585 11.8233 64.6434 11.6487C64.7286 11.4776 64.9381 11.4043 65.1106 11.4881C65.9428 11.8967 66.7715 12.3402 67.573 12.8081C67.7399 12.9024 67.7965 13.1155 67.6998 13.2831C67.6351 13.3948 67.5178 13.4577 67.3973 13.4577ZM23.1151 16.4889C23.0114 16.4889 22.9084 16.4435 22.8396 16.3527C22.7208 16.2025 22.7481 15.9825 22.9003 15.8638C23.633 15.2946 24.3947 14.7393 25.1636 14.2225C25.3236 14.1142 25.5404 14.1561 25.6484 14.3168C25.7559 14.4774 25.7137 14.6939 25.5537 14.8022C24.798 15.3121 24.0496 15.8534 23.3295 16.4156C23.266 16.4645 23.1902 16.4889 23.1151 16.4889V16.4889ZM71.9788 16.5622C71.9033 16.5622 71.8275 16.5378 71.7636 16.4889C71.0463 15.9267 70.3004 15.3819 69.5464 14.8685C69.3865 14.7603 69.3449 14.5438 69.4532 14.3831C69.5614 14.226 69.7787 14.1841 69.9383 14.2923C70.7055 14.8126 71.4647 15.3644 72.1946 15.9372C72.3465 16.0559 72.373 16.2759 72.2539 16.4295C72.1851 16.5169 72.0825 16.5622 71.9788 16.5622ZM18.9943 20.1872C18.9066 20.1872 18.819 20.1557 18.7512 20.0894C18.6126 19.9567 18.6091 19.7332 18.7436 19.597C19.3889 18.93 20.0664 18.2769 20.7568 17.6588C20.9004 17.5296 21.1211 17.5401 21.2503 17.6833C21.3788 17.8299 21.3669 18.0499 21.2234 18.1792C20.5452 18.7868 19.8792 19.4294 19.245 20.0824C19.1766 20.1523 19.0854 20.1872 18.9943 20.1872V20.1872ZM76.088 20.2745C75.9965 20.2745 75.905 20.2361 75.8363 20.1662C75.2042 19.5097 74.5403 18.8671 73.8639 18.256C73.7207 18.1268 73.7095 17.9068 73.8387 17.7636C73.9679 17.6204 74.189 17.6099 74.3318 17.7391C75.0205 18.3607 75.6959 19.0138 76.3395 19.6808C76.4732 19.8205 76.469 20.0405 76.33 20.1767C76.2623 20.2395 76.175 20.2745 76.088 20.2745V20.2745ZM15.426 24.4197C15.3544 24.4197 15.2824 24.3988 15.2203 24.3534C15.0645 24.2416 15.0303 24.0216 15.1441 23.8645C15.691 23.1171 16.2714 22.3768 16.8696 21.6679C16.9936 21.5212 17.214 21.5037 17.3617 21.6259C17.5091 21.7517 17.5279 21.9717 17.4036 22.1184C16.8159 22.8168 16.2456 23.5432 15.7081 24.2765C15.6397 24.3708 15.5335 24.4197 15.426 24.4197V24.4197ZM79.6449 24.5175C79.5369 24.5175 79.4304 24.4686 79.362 24.3743C78.8263 23.6375 78.2577 22.9076 77.6721 22.2091C77.5485 22.0625 77.5677 21.839 77.7154 21.7168C77.8635 21.5945 78.0835 21.612 78.2075 21.7587C78.8036 22.4711 79.3819 23.2114 79.9274 23.9657C80.0405 24.1194 80.0059 24.3394 79.8498 24.4512C79.788 24.4965 79.7161 24.5175 79.6449 24.5175V24.5175ZM12.4806 29.1063C12.4251 29.1063 12.3685 29.0923 12.3162 29.0643C12.1461 28.9735 12.0818 28.7605 12.173 28.5929C12.6102 27.7757 13.082 26.9621 13.5761 26.1763C13.6788 26.0157 13.8943 25.9633 14.0577 26.068C14.2208 26.1693 14.27 26.3858 14.1674 26.55C13.6819 27.3217 13.2182 28.118 12.7886 28.9212C12.7258 29.0399 12.6053 29.1063 12.4806 29.1063V29.1063ZM82.5793 29.218C82.4543 29.218 82.3335 29.1517 82.2706 29.0329C81.8432 28.2262 81.3812 27.4265 80.8975 26.6512C80.7955 26.4871 80.8451 26.2741 81.0089 26.1693C81.1723 26.068 81.3878 26.1169 81.4901 26.2811C81.9822 27.0703 82.4522 27.884 82.8874 28.7047C82.9782 28.8758 82.9132 29.0853 82.7428 29.1761C82.6908 29.204 82.6345 29.218 82.5793 29.218V29.218ZM10.2184 34.1525C10.1782 34.1525 10.1377 34.1455 10.0979 34.1316C9.91701 34.0652 9.82412 33.8626 9.89047 33.681C10.2093 32.8115 10.5631 31.9419 10.9423 31.0968C11.0213 30.9222 11.228 30.8419 11.4036 30.9222C11.5797 31.0025 11.6586 31.2086 11.5797 31.3832C11.207 32.2143 10.8592 33.0699 10.5463 33.922C10.4943 34.0652 10.3605 34.1525 10.2184 34.1525V34.1525ZM84.8294 34.2817C84.6866 34.2817 84.5528 34.1944 84.5011 34.0512C84.1903 33.1956 83.8446 32.3366 83.4741 31.5019C83.3955 31.3273 83.4751 31.1213 83.6515 31.041C83.8271 30.9641 84.0339 31.0444 84.1121 31.219C84.4896 32.0676 84.8413 32.9407 85.1576 33.8137C85.2236 33.9953 85.1297 34.1979 84.9485 34.2608C84.9093 34.2747 84.8692 34.2817 84.8294 34.2817V34.2817ZM8.68356 39.4711L8.61022 39.4642C8.42164 39.4223 8.30151 39.2372 8.34167 39.0486C8.53549 38.1441 8.76424 37.2291 9.02161 36.3386C9.07504 36.1535 9.26816 36.0453 9.45394 36.1011C9.63938 36.1535 9.74624 36.3456 9.69281 36.5307C9.43997 37.4072 9.21508 38.3047 9.02475 39.1953C8.98948 39.3594 8.8449 39.4711 8.68356 39.4711V39.4711ZM86.3457 39.6073C86.184 39.6073 86.0387 39.4956 86.0041 39.3314C85.8166 38.4374 85.5952 37.5399 85.3455 36.6634C85.2928 36.4783 85.4003 36.2863 85.5858 36.2339C85.7709 36.1815 85.9647 36.2862 86.0174 36.4748C86.2713 37.3653 86.4969 38.2803 86.6876 39.1848C86.7274 39.3734 86.6066 39.5584 86.418 39.6003L86.3457 39.6073ZM7.9069 44.9525L7.88175 44.9515C7.68933 44.9378 7.54475 44.7709 7.55837 44.5785C7.62437 43.652 7.72355 42.7171 7.85346 41.8001C7.88035 41.6094 8.05775 41.4767 8.24808 41.5036C8.4391 41.5305 8.57215 41.7072 8.54491 41.8982C8.41745 42.7992 8.31967 43.7176 8.25507 44.6281C8.2418 44.8121 8.0885 44.9525 7.9069 44.9525V44.9525ZM87.1028 45.0911C86.9209 45.0911 86.7672 44.9501 86.7546 44.7657C86.6932 43.8545 86.5989 42.9357 86.4746 42.0348C86.448 41.8434 86.5814 41.6674 86.7728 41.6409C86.9638 41.614 87.1398 41.748 87.1664 41.9391C87.2928 42.8565 87.3888 43.7913 87.4517 44.7182C87.4646 44.9106 87.3193 45.0772 87.1269 45.0904L87.1028 45.0911ZM7.89991 50.5809C7.71797 50.5809 7.56465 50.4398 7.55173 50.2558C7.48817 49.3328 7.45605 48.3937 7.45605 47.4637V47.3705C7.4564 47.1777 7.62297 47.0105 7.80632 47.0223C7.99909 47.023 8.15485 47.1795 8.1545 47.3726V47.4637C8.1545 48.3776 8.18627 49.301 8.24843 50.2076C8.2617 50.4 8.11644 50.5669 7.92437 50.5798L7.89991 50.5809ZM87.0972 50.6277L87.0724 50.6266C86.88 50.6134 86.7351 50.4464 86.7483 50.254C86.8122 49.3471 86.8447 48.4238 86.8458 47.5095C86.8461 47.3167 87.0026 47.1606 87.195 47.1606H87.1957C87.3885 47.161 87.5446 47.3174 87.5442 47.5102C87.5432 48.4405 87.51 49.3799 87.4454 50.3029C87.4325 50.4869 87.2788 50.6277 87.0972 50.6277V50.6277ZM8.66366 56.0637C8.50197 56.0637 8.35704 55.9512 8.32212 55.7867C8.13039 54.8805 7.96835 53.9544 7.84054 53.0345C7.81365 52.8435 7.94705 52.6671 8.13808 52.6402C8.32945 52.6137 8.50546 52.7471 8.53235 52.9381C8.65807 53.8419 8.81732 54.7516 9.00555 55.6421C9.04536 55.8311 8.92487 56.0161 8.73594 56.0563L8.66366 56.0637ZM86.3272 56.1097L86.2542 56.1021C86.0653 56.0619 85.9451 55.8765 85.9853 55.6879C86.1746 54.7974 86.3349 53.888 86.4616 52.9842C86.4885 52.7932 86.6642 52.6598 86.8563 52.687C87.0473 52.7136 87.1803 52.8903 87.1534 53.0813C87.0242 54.0012 86.8611 54.9269 86.6684 55.8332C86.6334 55.9973 86.4885 56.1097 86.3272 56.1097ZM10.1866 61.3865C10.0438 61.3865 9.91003 61.2985 9.85834 61.1567C9.54125 60.2854 9.25104 59.391 8.99576 58.4988C8.94268 58.3133 9.05024 58.1199 9.23532 58.0668C9.42111 58.014 9.61423 58.1213 9.66731 58.3067C9.91805 59.1832 10.203 60.0619 10.5149 60.9178C10.5809 61.0991 10.4873 61.2995 10.306 61.3655C10.2666 61.3798 10.2261 61.3865 10.1866 61.3865V61.3865ZM84.7976 61.4305C84.7578 61.4305 84.7176 61.4238 84.6778 61.4092C84.4966 61.3432 84.4037 61.1427 84.4697 60.9615C84.7826 60.1048 85.0686 59.2269 85.32 58.3514C85.3735 58.166 85.5669 58.0587 85.7524 58.1122C85.9374 58.1652 86.0447 58.3587 85.9916 58.5442C85.7353 59.4354 85.444 60.3294 85.1255 61.201C85.0742 61.3428 84.9401 61.4305 84.7976 61.4305ZM12.4433 66.4491C12.3183 66.4491 12.1974 66.3817 12.1346 66.264C11.6977 65.4441 11.2849 64.5982 10.907 63.7507C10.8285 63.5743 10.9074 63.3679 11.0838 63.2894C11.2598 63.2108 11.4662 63.2901 11.5447 63.4664C11.916 64.299 12.3221 65.1298 12.7509 65.9354C12.8417 66.1058 12.7771 66.3171 12.6071 66.4079C12.5547 66.4359 12.4985 66.4491 12.4433 66.4491V66.4491ZM82.5409 66.4795C82.4854 66.4795 82.4292 66.4662 82.3768 66.4383C82.2067 66.3475 82.1421 66.1359 82.2329 65.9658C82.6621 65.1623 83.0679 64.3336 83.4395 63.5024C83.518 63.3264 83.7248 63.2475 83.9008 63.3261C84.0768 63.4046 84.1557 63.6114 84.0772 63.7874C83.699 64.6332 83.2858 65.4769 82.8493 66.2948C82.7864 66.4125 82.6656 66.4795 82.5409 66.4795V66.4795ZM15.383 71.1447C15.2751 71.1447 15.1686 71.0948 15.1001 71.0009C14.5536 70.25 14.027 69.4706 13.5349 68.6845C13.4326 68.521 13.4822 68.3056 13.6456 68.2032C13.8091 68.1006 14.0245 68.1505 14.1269 68.3139C14.6105 69.0861 15.1281 69.8519 15.6652 70.5902C15.7787 70.7459 15.7441 70.9645 15.588 71.078C15.5262 71.1231 15.4542 71.1447 15.383 71.1447V71.1447ZM79.6008 71.1675C79.5296 71.1675 79.4577 71.1458 79.3955 71.1004C79.2398 70.9869 79.2055 70.7683 79.319 70.6125C79.8558 69.876 80.3733 69.1112 80.8573 68.3398C80.9597 68.1764 81.1751 68.1268 81.3386 68.2294C81.502 68.3318 81.5516 68.5472 81.4489 68.7107C80.9565 69.4961 80.4295 70.2745 79.8834 71.0239C79.8149 71.1175 79.7088 71.1675 79.6008 71.1675V71.1675ZM18.9444 75.386C18.8532 75.386 18.7621 75.35 18.6933 75.2792C18.049 74.6121 17.4197 73.9134 16.8228 73.2027C16.6985 73.055 16.7177 72.835 16.8655 72.7106C17.0132 72.587 17.2335 72.6059 17.3575 72.7536C17.9438 73.4521 18.5623 74.1386 19.1958 74.7941C19.3296 74.9327 19.3261 75.1538 19.1871 75.2879C19.1193 75.3532 19.032 75.386 18.9444 75.386V75.386ZM76.0381 75.4042C75.9508 75.4042 75.8631 75.3717 75.7954 75.3061C75.6568 75.172 75.6529 74.9509 75.787 74.8122C76.4212 74.1564 77.04 73.4705 77.626 72.7735C77.7503 72.6258 77.9707 72.6069 78.1181 72.7309C78.2658 72.8552 78.285 73.0752 78.1607 73.2229C77.5642 73.9326 76.9345 74.6303 76.2892 75.2977C76.2207 75.3686 76.1292 75.4042 76.0381 75.4042V75.4042ZM23.0571 79.092C22.982 79.092 22.9063 79.0679 22.8424 79.0179C22.1118 78.4463 21.3921 77.8414 20.703 77.2208C20.5599 77.0916 20.5483 76.8709 20.6776 76.7274C20.8068 76.5842 21.0275 76.5727 21.1706 76.7019C21.8478 77.312 22.555 77.906 23.2726 78.4679C23.4245 78.5866 23.4514 78.8063 23.3327 78.9582C23.2635 79.0462 23.1608 79.092 23.0571 79.092V79.092ZM71.9218 79.1087C71.8181 79.1087 71.7151 79.0626 71.6463 78.9743C71.5276 78.8224 71.5544 78.603 71.7064 78.4843C72.4251 77.9228 73.1329 77.3291 73.8108 76.719C73.954 76.5898 74.175 76.6017 74.3039 76.7449C74.4327 76.8884 74.4212 77.1091 74.2777 77.2379C73.588 77.8588 72.8675 78.4634 72.1366 79.0347C72.0727 79.0846 71.9969 79.1087 71.9218 79.1087V79.1087ZM27.642 82.1913C27.5827 82.1913 27.5223 82.1763 27.4674 82.1445C26.6653 81.68 25.8691 81.1813 25.1004 80.6617C24.9408 80.5538 24.8989 80.3366 25.0068 80.177C25.1147 80.017 25.332 79.9751 25.4919 80.0831C26.2469 80.5936 27.0292 81.0839 27.8174 81.54C27.9843 81.6367 28.0412 81.8501 27.9445 82.017C27.8799 82.1288 27.7625 82.1913 27.642 82.1913V82.1913ZM67.3299 82.2077C67.2095 82.2077 67.0921 82.1452 67.0275 82.0331C66.9308 81.8662 66.988 81.6524 67.155 81.5561C67.9446 81.1 68.7282 80.6097 69.4843 80.0995C69.6446 79.9915 69.8614 80.0335 69.9693 80.1934C70.0773 80.3534 70.035 80.5702 69.8754 80.6781C69.1057 81.1978 68.3081 81.6965 67.5045 82.1609C67.4494 82.1927 67.3893 82.2077 67.3299 82.2077ZM32.6111 84.6212C32.5675 84.6212 32.5235 84.6131 32.4802 84.5957C31.6218 84.2479 30.7641 83.8651 29.9312 83.4579C29.758 83.3734 29.6864 83.1642 29.7709 82.9907C29.8558 82.8174 30.065 82.7459 30.2382 82.8304C31.0564 83.2306 31.8987 83.6067 32.7424 83.9482C32.9212 84.0205 33.0075 84.2241 32.9352 84.4029C32.88 84.5388 32.7494 84.6212 32.6111 84.6212V84.6212ZM62.349 84.6372C62.2107 84.6372 62.0801 84.5548 62.0253 84.4186C61.953 84.2398 62.0392 84.0362 62.2184 83.9643C63.0642 83.6227 63.909 83.2466 64.7293 82.8464C64.9021 82.7619 65.1117 82.8338 65.1962 83.0074C65.2807 83.1806 65.2088 83.3898 65.0355 83.4743C64.2006 83.8815 63.3404 84.2643 62.4796 84.6117C62.4366 84.6292 62.3927 84.6372 62.349 84.6372V84.6372ZM37.8767 86.3334L37.7918 86.3229C36.8915 86.0987 35.9877 85.8396 35.1059 85.5526C34.9222 85.4932 34.822 85.2959 34.8817 85.1125C34.9415 84.9292 35.1388 84.8289 35.3218 84.8887C36.1885 85.1701 37.0762 85.4247 37.9608 85.6451C38.148 85.6915 38.2618 85.8812 38.2154 86.0683C38.1756 86.2272 38.0331 86.3334 37.8767 86.3334V86.3334ZM57.0782 86.3446C56.9214 86.3446 56.7789 86.2384 56.7395 86.0792C56.693 85.892 56.8072 85.7027 56.9944 85.6563C57.879 85.437 58.7674 85.1834 59.6342 84.9026C59.8178 84.8436 60.0148 84.9439 60.0742 85.1276C60.1335 85.3109 60.033 85.5078 59.8496 85.5672C58.9668 85.8532 58.063 86.111 57.1624 86.3341L57.0782 86.3446ZM43.329 87.2913L43.2924 87.2892C42.369 87.1928 41.438 87.0626 40.5252 86.9023C40.3352 86.8691 40.2084 86.6879 40.2419 86.4982C40.2751 86.3079 40.4571 86.1811 40.6463 86.2147C41.5431 86.3722 42.4577 86.5 43.365 86.5946C43.5567 86.6149 43.6961 86.7864 43.6762 86.9784C43.6573 87.1579 43.5058 87.2913 43.329 87.2913V87.2913ZM51.6244 87.2962C51.4477 87.2962 51.2958 87.1624 51.2773 86.9826C51.2578 86.7909 51.3971 86.6194 51.5888 86.5995C52.4968 86.5059 53.4114 86.3788 54.3082 86.2227C54.4975 86.1895 54.6791 86.3166 54.7122 86.5066C54.7454 86.6966 54.6183 86.8775 54.4283 86.9107C53.5158 87.0699 52.5844 87.1987 51.6608 87.2941L51.6244 87.2962ZM47.5001 87.5078C47.028 87.5078 46.5499 87.4994 46.0792 87.483C45.8867 87.4764 45.7359 87.3147 45.7425 87.1219C45.7491 86.9292 45.9105 86.7794 46.1036 86.785C47.0165 86.8167 47.9415 86.8171 48.8499 86.7867C49.0412 86.7815 49.2043 86.9313 49.211 87.124C49.2173 87.3168 49.0664 87.4782 48.8736 87.4848C48.4175 87.5002 47.9597 87.5078 47.5001 87.5078" fill="#7C8C9C"/>
<path d="M47.4997 15.6758C51.8287 15.6758 55.3383 12.1661 55.3383 7.83578C55.3383 3.50893 51.8287 -0.00074663 47.4997 -0.00074663C43.1708 -0.00074663 39.6611 3.50893 39.6611 7.83578C39.6611 12.1661 43.1708 15.6758 47.4997 15.6758Z" fill="#105650"/>
<path d="M48.8718 12.2591V9.20694H51.9251C52.1943 9.20694 52.4126 8.99041 52.4126 8.72151V6.95098C52.4126 6.68209 52.1943 6.46208 51.9251 6.46208H48.8718V3.40987C48.8718 3.14097 48.6536 2.92097 48.3843 2.92097H46.6152C46.3459 2.92097 46.1277 3.14097 46.1277 3.40987V6.46208H43.0741C42.8052 6.46208 42.5869 6.68209 42.5869 6.95098V8.72151C42.5869 8.99041 42.8052 9.20694 43.0741 9.20694H46.1277V12.2591C46.1277 12.528 46.3459 12.748 46.6152 12.748H48.3843C48.6536 12.748 48.8718 12.528 48.8718 12.2591Z" fill="white"/>
<path d="M47.4997 94.998C51.8287 94.998 55.3383 91.4884 55.3383 87.1594C55.3383 82.8305 51.8287 79.3208 47.4997 79.3208C43.1708 79.3208 39.6611 82.8305 39.6611 87.1594C39.6611 91.4884 43.1708 94.998 47.4997 94.998Z" fill="#105650"/>
<path d="M79.3232 47.4993C79.3232 51.8282 82.8329 55.3379 87.1618 55.3379C91.4911 55.3379 95.0005 51.8282 95.0005 47.4993C95.0005 43.1703 91.4911 39.6617 87.1618 39.6617C82.8329 39.6617 79.3232 43.1703 79.3232 47.4993Z" fill="#105650"/>
<path d="M0 47.4993C0 51.8282 3.50932 55.3379 7.8386 55.3379C12.1675 55.3379 15.6772 51.8282 15.6772 47.4993C15.6772 43.1703 12.1675 39.6617 7.8386 39.6617C3.50932 39.6617 0 43.1703 0 47.4993Z" fill="#105650"/>
<path d="M12.4082 44.8286C11.7796 44.0634 10.8587 43.6245 9.88121 43.6245H9.87948C9.1311 43.6248 8.41658 43.8829 7.83897 44.3456C7.17022 43.8064 6.32755 43.5431 5.46987 43.6332C4.34503 43.7516 3.35778 44.4542 2.82975 45.5127C2.30872 46.5572 2.29196 47.8015 2.78506 48.8411C3.31378 49.9565 4.27622 50.459 5.23728 50.8362L5.3672 50.8869C6.13304 51.1854 6.85663 51.4673 7.16848 52.1259C7.28791 52.3777 7.53865 52.5254 7.80021 52.5254L7.84003 52.5209L7.87949 52.5254C8.14071 52.5254 8.39074 52.3784 8.51052 52.1269C8.82098 51.4746 9.52746 51.1966 10.2751 50.9026C10.3761 50.8628 10.4759 50.8236 10.5737 50.7838C11.4073 50.4447 12.5699 49.8371 13.0427 48.48C13.4705 47.2522 13.2215 45.819 12.4082 44.8286" fill="white"/>
<path d="M53.036 87.1589C53.036 84.9961 50.5572 83.2434 47.4994 83.2434C44.4417 83.2434 41.9629 84.9961 41.9629 87.1589C41.9629 89.3212 44.4417 91.0743 47.4994 91.0743C48.1734 91.0743 48.8163 90.9849 49.4139 90.8292L49.3353 91.9648L50.6257 90.3895C52.0805 89.6838 53.036 88.5006 53.036 87.1589Z" fill="white"/>
<path d="M45.7099 86.7719C45.4955 86.7719 45.3223 86.9455 45.3223 87.1596C45.3223 87.3736 45.4955 87.5469 45.7099 87.5469C45.9236 87.5469 46.0972 87.3736 46.0972 87.1596C46.0972 86.9455 45.9236 86.7719 45.7099 86.7719Z" fill="#105650"/>
<path d="M47.4999 86.7719C47.2859 86.7719 47.1123 86.9455 47.1123 87.1596C47.1123 87.3736 47.2859 87.5469 47.4999 87.5469C47.714 87.5469 47.8876 87.3736 47.8876 87.1596C47.8876 86.9455 47.714 86.7719 47.4999 86.7719Z" fill="#105650"/>
<path d="M49.29 86.7719C49.0759 86.7719 48.9023 86.9455 48.9023 87.1596C48.9023 87.3736 49.0759 87.5469 49.29 87.5469C49.5041 87.5469 49.6773 87.3736 49.6773 87.1596C49.6773 86.9455 49.5041 86.7719 49.29 86.7719Z" fill="#105650"/>
<path d="M87.1617 49.3406C86.1458 49.3406 85.3195 48.514 85.3195 47.4985C85.3195 46.4829 86.1458 45.6563 87.1617 45.6563C88.1776 45.6563 89.0038 46.4829 89.0038 47.4985C89.0038 48.514 88.1776 49.3406 87.1617 49.3406ZM87.1617 45.1161C85.8483 45.1161 84.7793 46.1847 84.7793 47.4985C84.7793 48.8122 85.8483 49.8809 87.1617 49.8809C88.4754 49.8809 89.5441 48.8122 89.5441 47.4985C89.5441 46.1847 88.4754 45.1161 87.1617 45.1161Z" fill="white"/>
<path d="M90.0856 47.4986C90.0856 49.111 88.7739 50.4226 87.1616 50.4226C85.5492 50.4226 84.2375 49.111 84.2375 47.4986C84.2375 45.8862 85.5492 44.5746 87.1616 44.5746C88.7739 44.5746 90.0856 45.8862 90.0856 47.4986ZM92.161 48.2861V46.7111H91.0875C90.9834 46.1908 90.7781 45.7071 90.4931 45.2807L91.2537 44.5205L90.1401 43.4064L89.3795 44.1671C88.9531 43.8821 88.4694 43.6767 87.949 43.5727V42.4992H86.3741V43.5727C85.8537 43.6767 85.3704 43.8821 84.9437 44.1671L84.1831 43.4064L83.0694 44.5205L83.83 45.2807C83.545 45.7071 83.3397 46.1911 83.2356 46.7111H82.1621V48.2861H83.2356C83.3397 48.8061 83.545 49.2901 83.83 49.7165L83.0694 50.4768L84.1831 51.5908L84.9437 50.8302C85.3701 51.1151 85.8537 51.3205 86.3741 51.4245V52.498H87.949V51.4245C88.4694 51.3205 88.9531 51.1151 89.3795 50.8302L90.1401 51.5908L91.2537 50.4768L90.4931 49.7165C90.7781 49.2901 90.9834 48.8061 91.0875 48.2861H92.161Z" fill="white"/>
<path d="M54.8553 45.2999C54.8413 45.381 54.8273 45.462 54.8102 45.5419C54.7442 45.8507 54.636 46.0613 54.4792 46.1859C54.2818 46.3431 53.9791 46.3515 53.7901 46.2048C53.6442 46.092 53.5645 45.9086 53.4807 45.7145L53.4556 45.6565C52.8685 44.3176 51.7228 43.2106 50.3674 42.6588C50.849 42.4308 51.2342 42.0326 51.443 41.5615C51.5115 41.8057 51.6236 42.0407 51.7772 42.2485C52.1254 42.7189 52.6803 43.0604 53.2995 43.1854C53.4668 43.2193 53.6333 43.2357 53.7961 43.2357C53.8687 43.2357 53.94 43.2315 54.0109 43.2249L54.0095 43.2368C54.0542 43.822 54.4044 44.3833 54.9461 44.7377L54.9841 44.7611C54.9192 44.9382 54.886 45.1218 54.8553 45.2999V45.2999ZM60.2867 34.7116C60.0059 34.4985 59.6916 34.3379 59.3606 34.2297C59.8393 33.4684 59.8778 32.4451 59.4555 31.614C59.0518 30.8178 58.2329 30.2171 57.3183 30.039C56.5794 29.8993 55.788 30.0216 55.0899 30.3778C55.2481 29.7247 55.1549 28.9913 54.821 28.3558C54.4652 27.6783 53.8485 27.1125 53.084 26.7598C52.4079 26.449 51.6292 26.3023 50.7704 26.3198C49.8366 26.3408 48.9719 26.5643 48.2704 26.9659C47.4801 27.4164 46.8731 28.1253 46.6018 28.9075C46.4824 28.9075 46.3636 28.9215 46.247 28.946C46.1338 28.5164 45.8447 28.1113 45.435 27.8284C45.061 27.5665 44.5889 27.3954 44.0322 27.3221C43.2088 27.2103 42.3835 27.336 41.7085 27.6713C40.9615 28.045 40.3899 28.684 40.1402 29.4209C39.8852 30.1717 39.9848 31.0064 40.3958 31.635C39.6226 31.4429 38.7688 31.6035 38.1248 32.075C37.426 32.5848 37.0049 33.4334 37.0251 34.2855C37.0457 35.1481 37.5301 35.9828 38.26 36.4193C38.3347 36.4647 38.4122 36.5031 38.4911 36.538C37.9781 37.2958 37.8933 38.3365 38.2868 39.1641C38.693 40.0127 39.5985 40.6169 40.5404 40.6623C40.5729 40.6623 40.606 40.6658 40.6395 40.6658C41.0768 40.6658 41.5894 40.5261 41.8873 40.142C41.9194 40.8404 42.3092 41.5273 42.9238 41.9384C43.3554 42.2272 43.8904 42.3784 44.4387 42.3784C44.6846 42.3784 44.9329 42.348 45.1756 42.2862C45.6865 42.1556 46.1209 41.9062 46.4321 41.5643C46.6123 41.3667 46.7474 41.1344 46.8312 40.8928C47.0188 41.4889 47.3781 42.0099 47.8614 42.3679C48.3102 42.7 48.8543 42.8746 49.3893 42.8746C49.6138 42.8746 49.8366 42.8418 50.0503 42.7789L50.101 42.817C51.4741 43.3181 52.6444 44.4164 53.231 45.755L53.2558 45.8119C53.3442 46.0159 53.4444 46.247 53.64 46.3986C53.7748 46.503 53.9438 46.5547 54.1149 46.5547C54.2979 46.5547 54.4837 46.4953 54.6318 46.3777C54.8347 46.2163 54.9716 45.9596 55.0498 45.5933C55.0676 45.5098 55.0819 45.426 55.0966 45.3419C55.1245 45.1805 55.1525 45.0275 55.2013 44.8826C55.6703 45.1149 56.1603 45.1746 56.5382 45.1746C56.5801 45.1746 56.6206 45.1739 56.6597 45.1728C57.2338 45.1536 57.7552 45.0017 58.1666 44.7335C58.6733 44.4035 59.0421 43.8765 59.1786 43.2877C59.3152 42.6986 59.216 42.0634 58.9062 41.5441L58.8877 41.5235L58.9761 41.4697C59.4688 41.1393 59.7328 40.5087 59.6333 39.901L59.6176 39.8242L59.6581 39.8312H59.6766C60.1554 39.7578 60.6206 39.4819 60.9523 39.0803C61.2544 38.7137 61.4531 38.2457 61.5268 37.7253C61.6874 36.5904 61.2006 35.4065 60.2867 34.7116" fill="#105650"/>
<path d="M61.2841 37.69C61.2167 38.1685 61.0368 38.5945 60.7634 38.9263C60.4693 39.2825 60.0597 39.5235 59.6396 39.5863L59.5638 39.6317C59.4042 39.1673 59.0435 38.7726 58.5738 38.5631H58.5668C58.7781 38.0986 58.7578 37.5224 58.4903 37.0859C58.455 37.03 58.3796 37.0126 58.322 37.0475C58.2644 37.0824 58.2462 37.1592 58.2815 37.2151C58.5602 37.6726 58.5203 38.3012 58.1865 38.7202C57.8526 39.1358 57.2443 39.3104 56.7397 39.1393C56.6757 39.1149 56.6059 39.1498 56.5839 39.2127C56.5619 39.279 56.5958 39.3489 56.66 39.3698C56.8147 39.4222 56.9778 39.4466 57.1416 39.4466C57.6106 39.4466 58.0838 39.2371 58.3775 38.8739C58.4037 38.839 58.4281 38.8075 58.4508 38.7726L58.4746 38.7901C58.9513 38.9996 59.3113 39.4536 59.3913 39.9425C59.4748 40.4489 59.2478 40.9923 58.8395 41.2657C58.4177 41.5483 57.8184 41.5227 57.4461 41.2056C57.3944 41.1616 57.3173 41.1679 57.2733 41.2196C57.2296 41.271 57.2356 41.3482 57.2872 41.3922C57.5306 41.5996 57.8533 41.7047 58.1788 41.7047C58.3489 41.7047 58.5193 41.6757 58.6799 41.6178L58.696 41.6691C58.9733 42.1346 59.0623 42.7042 58.9397 43.2318C58.8175 43.7595 58.4868 44.232 58.0328 44.5278C57.6588 44.7716 57.1811 44.9098 56.6513 44.9273C56.2315 44.9416 55.6183 44.8844 55.0802 44.5323C54.6087 44.224 54.292 43.7204 54.2539 43.2175L54.2459 43.1896C54.5759 43.1236 54.8759 42.9853 55.1112 42.7785C55.6316 42.3221 55.7783 41.5175 55.4381 40.9856C55.4018 40.9284 55.326 40.9099 55.2691 40.9483C55.2118 40.9846 55.1951 41.0604 55.2317 41.1173C55.509 41.5517 55.3826 42.2142 54.9496 42.5942C54.5588 42.9375 53.9602 43.0684 53.348 42.9448C52.7875 42.8316 52.2867 42.5247 51.9742 42.1025C51.6421 41.6537 51.5258 41.0639 51.6704 40.5606C51.6892 40.4978 51.6515 40.4314 51.5866 40.4105C51.5216 40.393 51.4539 40.4315 51.435 40.4943C51.3955 40.6305 51.3735 40.7737 51.3673 40.9169L51.361 40.9364C51.2897 41.6286 50.7586 42.2788 50.0695 42.5173C49.3997 42.7492 48.6098 42.6165 48.0074 42.1706C47.4427 41.7526 47.0488 41.0576 46.9534 40.3127L46.9245 40.2499L46.9227 40.1905C46.9168 40.1241 46.8571 40.0752 46.7897 40.0822C46.7223 40.0857 46.6727 40.1451 46.6786 40.2149C46.7156 40.62 46.5557 41.0642 46.2508 41.3991C45.9722 41.7054 45.5793 41.93 45.1148 42.0483C44.3965 42.2317 43.6282 42.1143 43.06 41.7344C42.4834 41.3485 42.1269 40.6934 42.1297 40.0438C42.2568 40.0717 42.3884 40.0892 42.5229 40.0892H42.5299C42.9531 40.0857 43.4029 39.9425 43.8307 39.6736C43.888 39.6387 43.9051 39.5619 43.8691 39.506C43.8328 39.4466 43.7574 39.4292 43.7001 39.4676C43.3111 39.712 42.906 39.8412 42.5288 39.8447C42.1007 39.8447 41.6984 39.6736 41.456 39.3803C41.1979 39.0695 41.141 38.612 41.3202 38.2907C41.3533 38.2313 41.3321 38.158 41.273 38.1231C41.214 38.0917 41.1393 38.1126 41.1061 38.172C40.876 38.5841 40.9423 39.1463 41.2678 39.5374C41.3963 39.6911 41.5629 39.8168 41.7511 39.9111C41.5063 40.3127 40.9741 40.4384 40.5522 40.4175C39.6977 40.3756 38.8763 39.8273 38.5082 39.0555C38.1433 38.2907 38.231 37.3199 38.7237 36.6319C38.9825 36.7192 39.2542 36.7646 39.5255 36.7646C39.9418 36.7646 40.3567 36.6599 40.7199 36.4538C40.7785 36.4189 40.7995 36.3456 40.766 36.2862C40.7324 36.2268 40.6577 36.2059 40.5987 36.2408C39.9271 36.6214 39.0583 36.611 38.3853 36.2094C37.7264 35.8147 37.2884 35.0569 37.2699 34.2782C37.2517 33.5064 37.6345 32.7381 38.2694 32.2736C38.9036 31.8092 39.7613 31.673 40.5079 31.9174C40.5721 31.9384 40.6413 31.9035 40.6622 31.8406C40.6738 31.8057 40.6682 31.7708 40.6518 31.7428C40.6905 31.7009 40.6975 31.6346 40.6622 31.5892C40.24 31.0165 40.129 30.2132 40.372 29.4973C40.6011 28.8233 41.1281 28.2367 41.8182 27.8909C42.4496 27.5766 43.2241 27.4579 43.9994 27.5626C44.5173 27.636 44.9535 27.7897 45.2953 28.0271C45.6585 28.2821 45.9138 28.6347 46.0113 29.0119C45.8778 29.0608 45.7504 29.1237 45.6323 29.204C45.1661 29.5218 44.8752 30.07 44.8728 30.6358C44.8724 30.7021 44.9273 30.758 44.9947 30.758H44.9954C45.0628 30.758 45.1176 30.7021 45.1179 30.6358C45.12 30.1504 45.3701 29.6789 45.7703 29.4066C46.1705 29.1342 46.6999 29.0748 47.1518 29.2494C47.6037 29.424 47.9536 29.8256 48.0654 30.2971C48.0811 30.3634 48.1471 30.4053 48.2131 30.3879C48.2788 30.3739 48.3192 30.3075 48.3039 30.2412C48.1736 29.6929 47.7661 29.225 47.2405 29.0224C47.1165 28.9735 46.9873 28.9421 46.8567 28.9246C47.1193 28.2227 47.6742 27.5871 48.3922 27.1785C49.0582 26.7944 49.8827 26.5848 50.7757 26.5639C51.5977 26.5464 52.3395 26.6896 52.9817 26.9829C53.6973 27.3147 54.2735 27.842 54.6042 28.4706C54.9513 29.1306 55.0159 29.9059 54.7816 30.5555L54.7163 30.5974C54.0021 30.2307 53.0756 30.3704 52.5026 30.9326C52.4544 30.9815 52.454 31.0583 52.5012 31.1072C52.5487 31.1526 52.6262 31.1561 52.6744 31.1072C53.1713 30.6183 54.0098 30.4961 54.6251 30.8244C55.2401 31.1526 55.6082 31.9139 55.4807 32.5984C55.4685 32.6648 55.5125 32.7311 55.5789 32.7416L55.6016 32.7451C55.6592 32.7451 55.7109 32.7032 55.7217 32.6438C55.8544 31.9314 55.5376 31.1701 54.9569 30.7441L54.9782 30.7196C55.6791 30.2936 56.5067 30.1329 57.2719 30.2796C58.1142 30.4437 58.8671 30.9955 59.2369 31.7254C59.6246 32.4867 59.5869 33.4296 59.1409 34.1175L59.1245 34.1594C58.4407 33.9918 57.7039 34.0407 57.0508 34.3271C56.9887 34.355 56.9607 34.4249 56.9876 34.4877C57.0148 34.5506 57.0868 34.5785 57.149 34.5506C58.1055 34.1315 59.3071 34.2747 60.1383 34.9068C60.9698 35.5389 61.4304 36.6598 61.2841 37.69V37.69ZM54.8553 45.2996C54.8413 45.3806 54.8273 45.4616 54.8102 45.5416C54.7442 45.8503 54.636 46.0609 54.4792 46.1856C54.2818 46.3427 53.9791 46.3511 53.7901 46.2044C53.6442 46.0916 53.5645 45.9083 53.4807 45.7141L53.4556 45.6561C52.8685 44.3172 51.7228 43.2102 50.3674 42.6584C50.849 42.4304 51.2342 42.0323 51.443 41.5612C51.5115 41.8053 51.6236 42.0403 51.7772 42.2481C52.1254 42.7188 52.6803 43.06 53.2995 43.185C53.4668 43.2189 53.6333 43.2353 53.7961 43.2353C53.8687 43.2353 53.94 43.2311 54.0109 43.2245L54.0095 43.2364C54.0542 43.8217 54.4044 44.3829 54.9461 44.7373L54.9841 44.7607C54.9192 44.9378 54.886 45.1215 54.8553 45.2996V45.2996ZM60.2867 34.7112C60.0059 34.4982 59.6916 34.3375 59.3606 34.2293C59.8393 33.468 59.8778 32.4447 59.4555 31.6136C59.0518 30.8174 58.2329 30.2167 57.3183 30.0386C56.5794 29.8989 55.788 30.0212 55.0899 30.3774C55.2481 29.7243 55.1549 28.991 54.821 28.3554C54.4652 27.6779 53.8485 27.1121 53.084 26.7594C52.4079 26.4486 51.6292 26.302 50.7704 26.3194C49.8363 26.3404 48.9719 26.5639 48.2704 26.9655C47.4801 27.416 46.8731 28.1249 46.6018 28.9071C46.4824 28.9071 46.3636 28.9211 46.247 28.9456C46.1338 28.516 45.8447 28.1109 45.435 27.8281C45.061 27.5662 44.5892 27.395 44.0322 27.3217C43.2088 27.2099 42.3835 27.3357 41.7085 27.6709C40.9615 28.0446 40.3899 28.6836 40.1402 29.4205C39.8852 30.1713 39.9848 31.006 40.3958 31.6346C39.6226 31.4425 38.7688 31.6031 38.1248 32.0746C37.426 32.5844 37.0049 33.433 37.0251 34.2851C37.0457 35.1477 37.5301 35.9824 38.26 36.4189C38.3347 36.4643 38.4122 36.5027 38.4911 36.5376C37.9781 37.2954 37.8933 38.3361 38.2872 39.1638C38.693 40.0124 39.5985 40.6165 40.5404 40.6619C40.5729 40.6619 40.606 40.6654 40.6395 40.6654C41.0768 40.6654 41.5894 40.5257 41.8873 40.1416C41.9194 40.84 42.3092 41.527 42.9238 41.938C43.3554 42.2268 43.8904 42.378 44.4387 42.378C44.6846 42.378 44.9329 42.3476 45.1756 42.2858C45.6865 42.1552 46.1209 41.9059 46.4321 41.564C46.6123 41.3663 46.7474 41.1341 46.8312 40.8924C47.0188 41.4882 47.3781 42.0096 47.8614 42.3675C48.3102 42.6996 48.8543 42.8742 49.3893 42.8742C49.6138 42.8742 49.8366 42.8414 50.0503 42.7785L50.101 42.8166C51.4741 43.3178 52.6444 44.4161 53.231 45.7546L53.2558 45.8115C53.3442 46.0155 53.4444 46.2467 53.64 46.3982C53.7748 46.5026 53.9438 46.5547 54.1149 46.5547C54.2983 46.5547 54.4837 46.495 54.6318 46.3773C54.8347 46.2159 54.9716 45.9593 55.0498 45.5929C55.0676 45.5095 55.0819 45.4256 55.0966 45.3415C55.1245 45.1801 55.1525 45.0272 55.2013 44.8822C55.6707 45.1145 56.1603 45.1745 56.5382 45.1745C56.5801 45.1745 56.6206 45.1735 56.6597 45.1725C57.2338 45.1533 57.7552 45.0013 58.1666 44.7331C58.6733 44.4031 59.0421 43.8761 59.1786 43.2874C59.3152 42.6982 59.216 42.063 58.9066 41.5437L58.8877 41.5231L58.9761 41.4693C59.4688 41.139 59.7328 40.5083 59.6333 39.9006L59.6176 39.8238L59.6581 39.8308H59.677C60.1554 39.7575 60.6206 39.4816 60.9523 39.08C61.2544 38.7133 61.4531 38.2453 61.5268 37.725C61.6874 36.59 61.2006 35.4061 60.2867 34.7112" fill="#7C8C9C"/>
<path d="M46.4407 33.4141C46.7822 33.7982 46.8779 34.3989 46.6733 34.8738C46.6467 34.9332 46.675 35.0065 46.7372 35.0345L46.7857 35.0449C46.8332 35.0449 46.8782 35.017 46.8985 34.9681C47.1433 34.4023 47.033 33.7109 46.624 33.2499C46.2151 32.789 45.5428 32.5934 44.9509 32.768C44.359 32.9426 43.8987 33.47 43.8051 34.0811C43.795 34.1474 43.8407 34.2103 43.9078 34.2208C43.9745 34.2313 44.037 34.1824 44.0475 34.116C44.1253 33.6061 44.5256 33.1487 45.0201 33.0055C45.5149 32.8588 46.0988 33.0264 46.4407 33.4141Z" fill="#7C8C9C"/>
<path d="M53.818 35.6171C53.7506 35.6241 53.7028 35.6869 53.7108 35.7533C53.7189 35.8196 53.7796 35.8685 53.847 35.8615C54.5298 35.7777 55.2551 36.092 55.6515 36.6368C56.0593 37.1991 56.1159 37.9778 55.7922 38.5785C55.4643 39.1826 54.7648 39.5563 54.0904 39.4795C54.023 39.4725 53.9626 39.5214 53.9553 39.5877C53.948 39.6576 53.9962 39.7169 54.0636 39.7239C54.1296 39.7309 54.1959 39.7344 54.2623 39.7344C54.968 39.7344 55.6658 39.3258 56.0077 38.6937C56.3754 38.0127 56.3118 37.1292 55.8498 36.4936C55.3958 35.8685 54.5982 35.5228 53.818 35.6171" fill="#7C8C9C"/>
<path d="M53.4855 37.9566C53.4373 37.9077 53.3598 37.9112 53.3123 37.9566C52.9376 38.3373 52.3771 38.5259 51.8501 38.449C51.3231 38.3722 50.8381 38.0369 50.5845 37.569C50.3509 37.1359 50.3174 36.6016 50.4885 36.1442C50.7441 36.2699 51.027 36.3328 51.3112 36.3328C51.4604 36.3328 51.6098 36.3153 51.7554 36.2804C52.2695 36.1477 52.8045 35.6902 52.7839 35.0965C52.7815 35.0302 52.7252 34.9743 52.6571 34.9778C52.5894 34.9813 52.5366 35.0371 52.5391 35.107C52.5552 35.5714 52.1162 35.9347 51.695 36.0429C51.1932 36.1686 50.6393 36.0359 50.25 35.6972C49.8602 35.3549 49.6559 34.8241 49.7164 34.3073C49.7244 34.2409 49.6762 34.1815 49.6091 34.1711C49.5417 34.1641 49.481 34.213 49.4729 34.2793C49.4034 34.873 49.6392 35.4876 50.0883 35.8788C50.1469 35.9312 50.2095 35.9766 50.2737 36.0185C50.0942 36.469 50.0918 36.9893 50.2604 37.4433L50.3855 37.7122C50.6795 38.2325 51.2243 38.6062 51.8155 38.69C51.9035 38.704 51.9922 38.7109 52.0809 38.7109C52.6002 38.7109 53.1206 38.4979 53.4862 38.1312C53.534 38.0824 53.5337 38.0055 53.4855 37.9566" fill="#7C8C9C"/>
<path d="M47.9043 38.2743C47.8956 38.1835 47.7926 38.1346 47.7161 38.1835C47.4657 38.3512 47.1657 38.4524 46.8672 38.4629C46.498 38.4769 46.117 38.3616 45.8212 38.1381C45.6812 38.0334 45.5083 37.8622 45.4835 37.6457C45.4755 37.5794 45.4147 37.5305 45.3477 37.5375C45.2806 37.5445 45.2321 37.6073 45.2401 37.6737C45.275 37.9775 45.4958 38.201 45.6746 38.3337C45.7507 38.3931 45.8307 38.442 45.9134 38.4874C46.2078 38.6445 46.541 38.7213 46.8769 38.7074C47.2258 38.6934 47.5642 38.5816 47.8523 38.3896C47.8893 38.3651 47.9089 38.3197 47.9043 38.2743" fill="#7C8C9C"/>
<path d="M48.566 32.3708C48.6222 32.4092 48.6983 32.3918 48.7353 32.3359C49.1698 31.6794 50.1162 31.386 50.8453 31.6898C51.5745 31.9902 52.0393 32.8632 51.8815 33.6385C51.8679 33.7048 51.9108 33.7677 51.9772 33.7817L52.0016 33.7852C52.0585 33.7852 52.1099 33.7433 52.1217 33.6874C52.3047 32.7899 51.7854 31.8121 50.9389 31.4628C50.0928 31.1136 49.035 31.4384 48.531 32.2032C48.4937 32.2591 48.5094 32.3324 48.566 32.3708Z" fill="#7C8C9C"/>
</svg>
