<svg width="80" height="97" viewBox="0 0 80 97" fill="none" xmlns="http://www.w3.org/2000/svg">
<path d="M56.2676 6.30685C66.8318 10.562 74.5398 21.1594 75.3321 32.5221C75.5718 35.9541 75.188 39.5484 73.4411 42.5135C71.6942 45.4794 68.3712 47.6765 64.9434 47.3627C62.2616 47.1169 59.9485 45.4577 57.783 43.8573C49.3012 37.585 40.8191 31.3163 32.3373 25.0475C30.1127 23.4011 27.8479 21.716 26.2629 19.4512C24.9585 17.5845 23.5444 14.0868 24.7459 11.8452C25.7728 9.92434 29.0637 8.45185 30.9262 7.52043C35.8902 5.0392 41.5229 3.90677 47.06 4.25074C50.2118 4.44785 53.3365 5.12807 56.2676 6.30685Z" fill="#105650"/>
<path d="M26.2234 87.8027H25.2549V84.8859C24.8263 76.2402 21.082 72.6278 18.888 71.2442C16.2421 69.5757 15.5518 69.4265 13.5031 68.9832C12.9318 68.8599 12.2203 68.7061 11.343 68.4916C10.9515 68.3958 10.5577 68.305 10.1635 68.2137C8.50119 67.8292 6.7821 67.4315 5.19984 66.6728C2.89948 65.5702 1.30291 63.8063 0.819034 61.8329C0.316604 59.7845 1.16919 57.6631 1.92129 55.7917C2.03066 55.5196 2.13888 55.2503 2.24207 54.9844C2.4898 54.3447 2.41058 53.5903 2.03491 53.016C1.93559 52.8641 1.81307 52.718 1.68321 52.563C1.49615 52.3397 1.30252 52.1089 1.14986 51.8283C0.757194 51.1079 0.742896 50.2059 1.11353 49.4735C1.29943 49.1056 1.62485 48.762 2.00786 48.4996C1.75124 48.3001 1.53519 48.0485 1.38098 47.7587C0.916816 46.8868 0.989859 46.0114 1.56727 45.5286C2.51029 44.7398 3.31109 44.009 3.55303 43.0532C3.63612 42.7259 3.6396 42.4693 3.55844 42.133C2.64827 41.5228 1.64534 40.8271 0.925704 39.869C0.0425866 38.6941 -0.233364 37.2525 0.204909 36.1085C0.640091 34.9722 1.66389 34.2572 2.48633 33.6813C3.16422 33.2098 3.86724 32.7615 4.54706 32.3286C6.44161 31.1228 8.23104 29.9827 9.57909 28.286C10.6481 26.9449 11.2309 25.3294 11.8485 23.6173C12.099 22.9216 12.3579 22.2028 12.6509 21.511C14.1122 18.0597 16.4639 15.1146 18.7384 12.2701C21.29 9.0816 26.0723 6.07089 27.4776 5.22449C34.6847 0.884265 40.5311 0.741251 46.8876 0.99633C54.1922 1.28619 61.2254 3.62446 66.6915 7.57819C70.5273 10.3532 73.7808 14.0943 76.1008 18.3959C78.4205 22.6936 79.7585 27.4667 79.9699 32.1973C80.1813 36.9278 79.275 41.7994 77.3488 46.2904C75.4222 50.781 72.5154 54.7962 68.9427 57.902C65.8822 60.5625 64.0367 62.401 61.346 65.4689C56.6208 70.8569 55.5491 79.1018 58.7407 85.5186L57.8734 85.9499C54.5118 79.1907 55.6403 70.506 60.6179 64.8301C63.341 61.7251 65.2093 59.8641 68.3074 57.1711C71.7707 54.1604 74.5893 50.2658 76.4583 45.9082C78.3277 41.551 79.2074 36.8235 79.0022 32.2398C78.7969 27.6561 77.4991 23.026 75.2482 18.8519C72.9973 14.6818 69.8421 11.0527 66.1237 8.36275C60.8103 4.52109 53.9649 2.24854 46.8486 1.96254C39.3369 1.66108 34.3555 2.21377 27.9773 6.05543C26.6072 6.87864 21.9458 9.81206 19.4951 12.8769C17.2616 15.6712 14.952 18.5582 13.5429 21.8897C13.26 22.5583 13.0057 23.2617 12.7599 23.9458C12.143 25.6541 11.5053 27.4242 10.337 28.8889C8.88806 30.7093 6.94597 31.946 5.06766 33.1441C4.39633 33.5731 3.70221 34.0137 3.04132 34.4775C2.16439 35.0882 1.41383 35.664 1.10967 36.4563C0.727051 37.4534 1.16378 38.5742 1.69983 39.2854C2.36072 40.1666 3.31997 40.8081 4.24792 41.4288C4.34184 41.4918 4.41102 41.5857 4.4431 41.6943C4.61663 42.2814 4.63055 42.744 4.49218 43.2913C4.15324 44.6285 3.01774 45.5781 2.18873 46.2719C1.95027 46.4713 2.04612 46.9466 2.23627 47.3038C2.44343 47.6929 2.86045 47.9739 3.29872 48.0199C3.54221 48.0454 3.72849 48.2487 3.73235 48.4942C3.73622 48.7392 3.55651 48.9483 3.31341 48.9815C2.80943 49.0499 2.19762 49.4754 1.97771 49.9106C1.75278 50.3558 1.76128 50.9267 2.00013 51.3649C2.10718 51.5609 2.26178 51.7453 2.42565 51.9408C2.56787 52.1105 2.71512 52.2859 2.84576 52.4857C3.38915 53.3171 3.50394 54.4085 3.14528 55.3341C3.04093 55.6039 2.93079 55.8772 2.81987 56.1531C2.08825 57.9738 1.33151 59.8564 1.75974 61.6022C2.17443 63.2927 3.58085 64.8227 5.6184 65.7994C7.10443 66.5117 8.77057 66.897 10.3818 67.2699C10.7799 67.3619 11.1776 67.4539 11.573 67.5505C12.4379 67.7619 13.1127 67.908 13.7079 68.0367C15.8228 68.4939 16.6139 68.6652 19.4047 70.4248C21.9404 72.0237 23.8156 74.5695 24.9782 77.991C25.6723 80.0348 26.1029 82.4066 26.2231 84.8504L26.2234 84.8743V87.8027" fill="#7C8C9C"/>
<path d="M23.5393 36.6191C22.4301 36.6191 21.3209 36.3873 20.2909 35.9312C18.2878 35.0384 16.5907 33.2799 15.6338 31.1079C15.5263 30.8644 15.6373 30.5784 15.8819 30.4702C16.1269 30.362 16.4126 30.474 16.5204 30.7175C17.3811 32.6731 18.8992 34.25 20.6851 35.0461C22.4568 35.8346 24.4951 35.85 26.278 35.0925C26.5241 34.9882 26.8082 35.1041 26.913 35.3515C27.0177 35.595 26.9033 35.881 26.6567 35.9853C25.6642 36.4066 24.6018 36.6191 23.5393 36.6191" fill="#7C8C9C"/>
<path d="M58.6612 83.7555C55.3888 83.7555 52.7263 86.4176 52.7263 89.6904C52.7263 92.9628 55.3888 95.6252 58.6612 95.6252C61.934 95.6252 64.5965 92.9628 64.5965 89.6904C64.5965 86.4176 61.934 83.7555 58.6612 83.7555ZM58.6612 96.5938C54.8547 96.5938 51.7578 93.4969 51.7578 89.6904C51.7578 85.8835 54.8547 82.7866 58.6612 82.7866C62.4681 82.7866 65.565 85.8835 65.565 89.6904C65.565 93.4969 62.4681 96.5938 58.6612 96.5938Z" fill="#7C8C9C"/>
<path d="M58.6616 86.2153C56.7454 86.2153 55.1863 87.7744 55.1863 89.691C55.1863 91.6072 56.7454 93.1663 58.6616 93.1663C60.5782 93.1663 62.1372 91.6072 62.1372 89.691C62.1372 87.7744 60.5782 86.2153 58.6616 86.2153ZM58.6616 94.1348C56.2113 94.1348 54.2178 92.1413 54.2178 89.691C54.2178 87.2403 56.2113 85.2468 58.6616 85.2468C61.1123 85.2468 63.1058 87.2403 63.1058 89.691C63.1058 92.1413 61.1123 94.1348 58.6616 94.1348Z" fill="#7C8C9C"/>
<path d="M61.8099 89.69C61.8099 87.9512 60.4004 86.5417 58.6616 86.5417C56.9232 86.5417 55.5137 87.9512 55.5137 89.69C55.5137 91.4284 56.9232 92.8379 58.6616 92.8379C60.4004 92.8379 61.8099 91.4284 61.8099 89.69Z" fill="#7C8C9C"/>
<path d="M70.8214 37.2443C70.4102 38.0095 69.832 38.6163 69.1487 38.9989C68.4183 39.4125 67.5579 39.5593 66.7884 39.4008L66.7343 39.397C66.691 38.539 66.308 37.6887 65.6572 37.0394C66.3011 36.336 66.6029 35.3273 66.3935 34.392C66.349 34.1949 66.148 34.0635 65.9447 34.1022C65.7411 34.1408 65.6124 34.3302 65.6568 34.5311C65.8632 35.451 65.4176 36.4674 64.5971 36.9467C63.7766 37.4259 62.6283 37.337 61.8669 36.738C61.7031 36.6104 61.4662 36.6298 61.3378 36.7882C61.2091 36.9428 61.2374 37.1708 61.4012 37.3022C61.6606 37.5071 61.9539 37.6655 62.265 37.7776C63.1574 38.0984 64.1959 38.0443 64.9975 37.5766L65.0949 37.5148C65.7658 38.1641 66.1009 39.1187 65.949 39.9612C65.789 40.8505 65.0752 41.6077 64.2133 41.8044C63.3267 42.0065 62.3226 41.5965 61.8778 40.8502C61.7723 40.6735 61.5415 40.6094 61.3618 40.7071C61.1821 40.8045 61.1222 41.0272 61.2277 41.2038C61.5558 41.7542 62.1027 42.1716 62.7253 42.3973C63.0044 42.4981 63.2989 42.5596 63.5953 42.5781C63.7955 43.5362 63.6038 44.5492 63.0685 45.3585C62.5321 46.1697 61.6644 46.7557 60.6882 46.9655C59.8793 47.1394 58.9505 47.0675 58.0021 46.758C57.2508 46.5129 56.2011 46.0232 55.4687 45.0841C54.8492 44.2891 54.5999 43.2785 54.8082 42.429C55.4266 42.5074 56.0333 42.4525 56.5744 42.2531C57.892 41.768 58.6873 40.4192 58.3859 39.1844C58.3379 38.9873 58.1343 38.8598 57.9321 38.9023C57.7296 38.9409 57.6044 39.138 57.6527 39.3351C57.8664 40.2109 57.2558 41.2135 56.2915 41.569C55.4049 41.8952 54.2818 41.7345 53.2862 41.1393C52.3695 40.5908 51.6769 39.7526 51.3863 38.8443C51.0798 37.882 51.234 36.823 51.7886 36.0771C51.9088 35.9147 51.8686 35.6867 51.6985 35.5669C51.5289 35.4432 51.2935 35.478 51.1733 35.6404C51.016 35.8491 50.8861 36.0809 50.7814 36.3283L50.747 36.3824C50.2025 37.4993 48.8799 38.253 47.5303 38.2143C46.2135 38.1795 44.9072 37.453 44.1211 36.3167C43.381 35.2461 43.1128 33.8162 43.403 32.4867C43.415 32.4325 43.4127 32.3784 43.4007 32.3282L43.4224 32.2625C43.4726 32.0654 43.3485 31.8644 43.1476 31.8103C42.9458 31.7601 42.741 31.8721 42.6907 32.0654C42.5099 32.7649 41.9657 33.4026 41.2345 33.7659C40.5589 34.106 39.731 34.2335 38.8406 34.1369C37.4589 33.99 36.1758 33.3021 35.4078 32.2934C34.5912 31.2267 34.3821 29.8083 34.8756 28.6875L34.8868 28.6527C35.1241 28.8073 35.3812 28.9426 35.6571 29.0431L35.6702 29.0469C36.4645 29.3329 37.399 29.3793 38.3725 29.1822C38.5755 29.1436 38.7018 28.9503 38.6547 28.7532C38.6079 28.5561 38.4054 28.4286 38.2025 28.4672C37.3665 28.6334 36.5758 28.5986 35.9153 28.3629C35.1798 28.1 34.5865 27.5628 34.3454 26.9329C34.0926 26.272 34.2627 25.499 34.7496 25.0893C34.905 24.9618 34.9189 24.7299 34.7802 24.5753C34.6422 24.4207 34.4037 24.4014 34.2484 24.5328C33.526 25.1395 33.2756 26.2217 33.6397 27.1725C33.7707 27.5126 33.9798 27.8334 34.2426 28.1155C34.1614 28.1155 34.0814 28.1426 34.0161 28.1967C33.3641 28.7378 32.321 28.5909 31.6261 28.301C30.1478 27.6865 29.0366 26.2372 28.8615 24.699C28.6911 23.2033 29.4061 21.6535 30.6459 20.7916C31.0506 21.0892 31.4985 21.3327 31.972 21.5028C32.7507 21.7849 33.594 21.8815 34.4084 21.7578C34.6128 21.7269 34.7485 21.5375 34.7106 21.3404C34.6731 21.1394 34.4764 21.0042 34.2716 21.0351C32.8814 21.2476 31.3281 20.6602 30.4059 19.5742C29.488 18.4882 29.1819 16.9306 29.626 15.605C30.0674 14.2832 31.2133 13.2281 32.6159 12.8455C34.018 12.4667 35.613 12.7837 36.7779 13.6764C36.9433 13.804 37.1799 13.7769 37.3062 13.6223C37.3518 13.5643 37.3758 13.4987 37.3816 13.433C37.4859 13.3402 37.5327 13.1972 37.4879 13.0581C37.0968 11.8213 37.3924 10.399 38.2593 9.34392C39.0798 8.34293 40.3726 7.68592 41.8065 7.54292C43.1255 7.40765 44.5768 7.70912 45.8931 8.38933C46.7693 8.84152 47.4453 9.38644 47.9029 10.0087C48.3551 10.6232 48.5873 11.3266 48.5645 11.9836C48.3234 11.9875 48.0834 12.0184 47.8488 12.0725C46.7573 12.3315 45.8456 13.1276 45.4696 14.1518C45.4004 14.3412 45.5032 14.5499 45.6995 14.6233H45.7011C45.897 14.6968 46.1111 14.6001 46.1803 14.4108C46.4706 13.6223 47.2026 12.9807 48.0451 12.7836C48.8872 12.5827 49.8612 12.8184 50.5256 13.3827C51.1903 13.947 51.5621 14.8552 51.4732 15.6939C51.452 15.8949 51.6027 16.0804 51.8098 16.1036C52.0166 16.1306 52.2017 15.9876 52.223 15.7866C52.3385 14.7006 51.8752 13.5721 51.0141 12.8416C50.8568 12.7063 50.6871 12.5865 50.5089 12.4822C51.4087 11.5237 52.7362 10.8473 54.2053 10.6193C55.6333 10.3952 57.2399 10.5652 58.852 11.1102C60.3357 11.6126 61.5752 12.3353 62.5387 13.259C63.6077 14.2832 64.306 15.5547 64.5043 16.8417C64.7092 18.1674 64.3594 19.5046 63.5686 20.4554L63.547 20.4592C62.4351 19.3539 60.6356 18.9945 59.2106 19.6128C59.0224 19.694 58.942 19.9104 59.0313 20.0959C59.1202 20.2814 59.3451 20.3626 59.533 20.2814C60.6909 19.779 62.2198 20.1037 63.0902 21.039C63.9605 21.9704 64.1379 23.4738 63.5033 24.5367C63.4001 24.7106 63.4627 24.9347 63.6436 25.0391L63.707 25.0661C63.8751 25.128 64.0664 25.0661 64.158 24.9154C64.8448 23.7637 64.7845 22.2603 64.066 21.1085C65.5324 20.8728 67.0451 21.1356 68.2741 21.8544C69.6643 22.6699 70.6552 24.0922 70.8608 25.5647C71.0749 27.1029 70.4353 28.6682 69.231 29.5532C68.0905 28.8305 66.7316 28.4479 65.3751 28.5174C65.1675 28.5252 65.0122 28.6991 65.0284 28.9C65.0442 29.101 65.2259 29.2556 65.4334 29.2479C67.3856 29.1474 69.425 30.1639 70.5084 31.7717C71.5917 33.3794 71.7173 35.5785 70.8214 37.2443V37.2443ZM54.1075 46.6741C53.8103 47.1414 53.5046 47.4192 53.1737 47.5236C52.7741 47.6492 52.2918 47.4904 52.0754 47.1622C51.9014 46.8987 51.8744 46.5438 51.8458 46.1678L51.8365 46.0499C51.622 43.3901 50.313 40.7648 48.3002 38.8946C49.118 38.7747 49.8786 38.4269 50.4796 37.9168C50.4877 38.2955 50.5491 38.6742 50.6666 39.0453C51.0121 40.1259 51.8268 41.1157 52.9024 41.7588C53.1923 41.9323 53.4926 42.0745 53.7971 42.1847C53.8872 42.2175 53.9776 42.2446 54.0681 42.2713C53.8176 43.3295 54.1079 44.5241 54.8573 45.4961C54.6548 45.7485 54.4936 46.0206 54.3394 46.2865C54.2636 46.4167 54.1879 46.547 54.1075 46.6741V46.6741ZM71.1364 31.3813C70.7855 30.8595 70.3522 30.3996 69.8645 30.0054C71.165 28.9503 71.8471 27.2034 71.6079 25.4874C71.3718 23.7907 70.239 22.1636 68.6517 21.2322C67.4528 20.5327 66.0193 20.2119 64.5905 20.3124C65.1992 19.2843 65.4442 18.0128 65.2498 16.749C65.0268 15.3074 64.2496 13.8851 63.0616 12.745C62.015 11.744 60.6766 10.9594 59.0843 10.4222C57.3532 9.83477 55.6179 9.65314 54.0661 9.89663C52.3471 10.1672 50.7965 10.9904 49.7862 12.1614C49.6324 12.1112 49.4759 12.0725 49.317 12.0416C49.3495 11.2223 49.067 10.3488 48.5127 9.59514C47.9848 8.87628 47.218 8.25406 46.234 7.7439C44.7839 6.99798 43.1773 6.66558 41.7098 6.81245C40.0804 6.97864 38.606 7.73228 37.6645 8.88014C36.7729 9.96616 36.3995 11.3923 36.6341 12.7102C35.3618 11.9836 33.7966 11.7633 32.3956 12.1421C30.7607 12.5865 29.4243 13.8194 28.9079 15.3615C28.3869 16.9229 28.7479 18.7548 29.8285 20.0302C29.9035 20.1152 29.9823 20.2042 30.0635 20.2853C28.6965 21.3095 27.9193 23.068 28.1121 24.757C28.317 26.5618 29.616 28.2508 31.3439 28.9696C31.4042 28.9967 31.4657 29.0199 31.5287 29.0431C32.2614 29.3097 33.1805 29.4141 33.9543 29.0933C33.6899 30.2991 33.9937 31.6557 34.8061 32.7185C35.4244 33.5302 36.3242 34.164 37.3468 34.535C37.8036 34.6973 38.2852 34.8133 38.7768 34.8635C39.8145 34.9756 40.7885 34.821 41.5943 34.4191C41.9495 34.2413 42.2656 34.0133 42.535 33.7543C42.5709 34.8171 42.9002 35.8491 43.4981 36.7109C44.1203 37.6114 45.0232 38.2955 46.0234 38.6549C46.4184 38.7979 46.8284 38.8907 47.2424 38.9255L47.3092 38.9989C49.4569 40.7532 50.8684 43.4029 51.0852 46.0882L51.0941 46.203C51.1265 46.6335 51.1636 47.1216 51.4431 47.5448C51.6386 47.8413 51.9393 48.0623 52.279 48.1856C52.6416 48.3166 53.0493 48.3371 53.423 48.2193C53.9255 48.0612 54.3603 47.6848 54.7518 47.0691C54.8376 46.9342 54.9183 46.7958 54.9987 46.6571C55.1205 46.4468 55.2387 46.2459 55.3717 46.0631C55.9549 46.6157 56.6927 47.0613 57.5484 47.3709C57.6241 47.3984 57.7006 47.4251 57.7783 47.4502C58.8582 47.8026 59.9268 47.8819 60.869 47.6793C62.0327 47.4293 63.0666 46.7313 63.7062 45.7643C64.33 44.8213 64.5615 43.646 64.3482 42.5267L64.4034 42.5163C65.5548 42.2535 66.4704 41.2923 66.688 40.122C67.6279 40.3044 68.6648 40.1286 69.5398 39.6366C70.3422 39.1806 71.017 38.4771 71.4912 37.5959C72.5246 35.6751 72.3855 33.2364 71.1364 31.3813" fill="white"/>
<path d="M46.5651 20.1275C46.9215 20.9778 46.7271 22.029 46.0925 22.6822C45.9514 22.8252 45.9614 23.057 46.1149 23.2C46.1539 23.2348 46.1987 23.2619 46.2459 23.2773C46.3835 23.3276 46.5427 23.2967 46.6474 23.1885C47.4865 22.3266 47.7335 20.9894 47.2627 19.8647C46.7916 18.74 45.643 17.9245 44.4043 17.8356C43.166 17.7467 41.9435 18.3922 41.3634 19.4396C41.2657 19.6173 41.336 19.8376 41.52 19.9381C41.7039 20.0348 41.932 19.9729 42.0293 19.799C42.4688 19.0067 43.4304 18.4965 44.3676 18.5661C45.3052 18.6318 46.2088 19.2772 46.5651 20.1275Z" fill="white"/>
<path d="M58.7317 28.6419C58.528 28.5955 58.327 28.7153 58.2822 28.9124C58.2378 29.1057 58.3661 29.3066 58.5698 29.353C59.8131 29.6506 60.8906 30.6323 61.2516 31.7994C61.616 32.9782 61.233 34.3503 60.3198 35.1387C59.3821 35.9464 57.9413 36.1242 56.8147 35.5754C56.6265 35.4827 56.402 35.5561 56.3123 35.7377C56.2226 35.9155 56.3019 36.1358 56.4901 36.2286C56.6099 36.2866 56.7324 36.3368 56.8572 36.3832C58.1879 36.8663 59.7698 36.6035 60.8288 35.6875C61.9658 34.7097 62.4257 33.0671 61.9728 31.6062C61.5287 30.1685 60.256 29.0052 58.7317 28.6419" fill="white"/>
<path d="M56.2408 32.4056C55.3604 32.7998 54.2728 32.7611 53.4025 32.3051C52.5317 31.8452 51.8929 30.9756 51.7348 30.0364C51.5976 29.2171 51.8268 28.3552 52.3369 27.7098C52.7153 28.0576 53.1629 28.332 53.6494 28.5098C53.9312 28.6103 54.2253 28.6799 54.5244 28.7108C55.5958 28.8267 56.928 28.3475 57.287 27.2305C57.3485 27.0412 57.2376 26.8325 57.0381 26.7706C56.8391 26.7049 56.6281 26.8054 56.5666 26.9987C56.3332 27.7252 55.3778 28.0692 54.589 27.9842C53.6429 27.8837 52.7632 27.3155 52.294 26.5039C51.8322 25.7039 51.7974 24.6643 52.2063 23.8604C52.2971 23.6787 52.2187 23.4585 52.0316 23.3657C51.8442 23.2729 51.6188 23.3425 51.528 23.5241C51.0063 24.5522 51.0488 25.8276 51.6386 26.8479C51.6969 26.9484 51.7611 27.045 51.8291 27.1416C51.2575 27.8064 50.9406 28.6799 50.944 29.561C50.0188 30.3456 48.5212 30.4384 47.473 29.7543C46.3893 29.047 45.8981 27.5822 46.3549 26.4228C46.4287 26.2373 46.3306 26.0247 46.1358 25.9474C45.9414 25.8701 45.7238 25.959 45.65 26.1484C45.466 26.616 45.4046 27.1223 45.4494 27.6247C45.0169 28.1156 44.39 28.4595 43.7276 28.5716C43.0625 28.6837 42.3374 28.56 41.738 28.2393C41.5138 28.1194 41.1223 27.8644 41.0183 27.4972C40.9627 27.3001 40.7551 27.1803 40.5546 27.2305C40.354 27.2808 40.2365 27.4779 40.2921 27.675C40.4626 28.2741 40.9809 28.6605 41.3851 28.877C41.5529 28.9658 41.7264 29.0431 41.9042 29.1088C42.5337 29.3369 43.2163 29.4026 43.8745 29.2905C44.5296 29.1823 45.1371 28.9002 45.6341 28.4866C45.8904 29.2364 46.3843 29.9127 47.0633 30.3572C47.2879 30.504 47.5283 30.62 47.7791 30.7128C48.8493 31.0992 50.1011 30.9833 51.0484 30.4036C51.3127 31.4664 52.0618 32.421 53.0562 32.9428C53.2139 33.0278 53.377 33.0974 53.5439 33.1592C54.5225 33.5148 55.641 33.4877 56.572 33.0703C56.7591 32.9853 56.8364 32.7689 56.7452 32.5834C56.6536 32.4017 56.4279 32.3205 56.2408 32.4056" fill="white"/>
<path d="M51.0989 19.7416C51.2253 19.9077 51.4622 19.9425 51.6276 19.8227C52.7817 18.9957 54.6036 19.1077 55.6888 20.0701C56.7745 21.0324 57.0539 22.7871 56.3114 23.9813C56.2052 24.1513 56.2639 24.3755 56.4429 24.4837L56.512 24.5146C56.6774 24.5765 56.8664 24.5185 56.9596 24.3678C57.8926 22.8721 57.5548 20.7464 56.1901 19.5367C54.8254 18.327 52.6201 18.1918 51.1693 19.2314C51.0042 19.3512 50.9725 19.5792 51.0989 19.7416" fill="white"/>
<path d="M20.7354 7.40954L20.3857 6.91485C20.5839 6.77571 20.7872 6.63659 20.9897 6.49745L21.3271 6.99988C21.1293 7.13515 20.9298 7.27041 20.7354 7.40954V7.40954ZM19.5814 8.26755L19.2088 7.79218C19.4028 7.63758 19.5992 7.49072 19.7924 7.34772L20.1534 7.83083C19.9644 7.97382 19.7719 8.12068 19.5814 8.26755V8.26755ZM18.4691 9.17963L18.0741 8.71974C18.2604 8.56128 18.4494 8.40281 18.636 8.24822L19.0198 8.71974C18.837 8.8666 18.6515 9.02504 18.4691 9.17963ZM17.4001 10.142L16.9842 9.70139C17.1608 9.53906 17.3421 9.36902 17.5237 9.2067L17.9288 9.655C17.751 9.81733 17.5728 9.97967 17.4001 10.142V10.142ZM16.3767 11.1546L15.9411 10.7333C16.1108 10.5594 16.2843 10.3855 16.457 10.2116L16.8826 10.6444C16.7133 10.8106 16.5428 10.9845 16.3767 11.1546V11.1546ZM15.4008 12.2135L14.9463 11.8116C15.1071 11.63 15.2725 11.4483 15.4375 11.2667L15.8823 11.6802C15.7204 11.8541 15.5581 12.0319 15.4008 12.2135ZM14.4736 13.315L14.0017 12.9324C14.1544 12.743 14.3113 12.5536 14.4678 12.3681L14.9308 12.7585C14.7774 12.9402 14.6236 13.1256 14.4736 13.315ZM13.5978 14.4551L13.1093 14.0996C13.2523 13.9025 13.4003 13.7054 13.5491 13.5121L14.0295 13.8793C13.8834 14.0687 13.7385 14.2619 13.5978 14.4551V14.4551ZM12.775 15.6378L12.2706 15.3016C12.4055 15.0967 12.5443 14.8957 12.683 14.6948L13.1796 15.0426C13.0436 15.2359 12.9072 15.4368 12.775 15.6378V15.6378ZM12.0071 16.8514L11.4876 16.5422C11.6128 16.3335 11.7419 16.1248 11.8722 15.9161L12.3843 16.2407C12.2563 16.4417 12.1292 16.6504 12.0071 16.8514V16.8514ZM11.2952 18.1036L10.7622 17.8176C10.8774 17.6011 10.9968 17.3886 11.1178 17.176L11.6438 17.4736C11.5251 17.6823 11.408 17.8949 11.2952 18.1036ZM10.6416 19.3867L10.0959 19.1239C10.2014 18.9036 10.3112 18.6833 10.4213 18.4669L10.9608 18.7413C10.8526 18.9538 10.7452 19.1703 10.6416 19.3867V19.3867ZM10.0484 20.6969L9.49104 20.4611C9.58573 20.237 9.68467 20.0128 9.78554 19.7886L10.3371 20.036C10.2385 20.2563 10.1411 20.4766 10.0484 20.6969V20.6969ZM9.51694 22.0341L8.94919 21.8216C9.03344 21.5974 9.12156 21.3655 9.212 21.1375L9.77472 21.3616C9.68622 21.5858 9.59965 21.81 9.51694 22.0341V22.0341ZM9.04968 23.3945L8.47266 23.209C8.54647 22.9771 8.62377 22.7452 8.70261 22.5134L9.27539 22.7105C9.19809 22.9346 9.12195 23.1665 9.04968 23.3945" fill="#7C8C9C"/>
<path d="M70.1908 52.9472L69.7684 52.5136C69.9407 52.3455 70.1123 52.1762 70.2828 52.0061L70.7106 52.4344C70.5382 52.6063 70.3651 52.7772 70.1908 52.9472V52.9472ZM69.1365 53.9552L68.7222 53.5134C68.898 53.3484 69.0735 53.1826 69.2478 53.016L69.6659 53.4539C69.4905 53.6216 69.3139 53.7886 69.1365 53.9552V53.9552ZM68.0667 54.9442L67.6585 54.4974C67.8367 54.3343 68.0145 54.1712 68.1919 54.007L68.6031 54.4514C68.4246 54.6165 68.246 54.7807 68.0667 54.9442ZM66.9884 55.9216L66.5833 55.4717C66.7631 55.3098 66.9428 55.1479 67.1221 54.9855L67.5283 55.4343C67.3486 55.597 67.1689 55.7593 66.9884 55.9216V55.9216ZM65.9078 56.8932L65.5031 56.443L66.0434 55.9572L66.4481 56.4078L65.9078 56.8932ZM64.8303 57.8656L64.4229 57.4173C64.6026 57.2542 64.7823 57.0915 64.9624 56.9292L65.3682 57.3786C65.1885 57.5406 65.0092 57.7029 64.8303 57.8656ZM63.7616 58.8454L63.3496 58.4017C63.5274 58.2363 63.706 58.0716 63.8853 57.9078L64.2942 58.3541C64.116 58.5172 63.9386 58.6811 63.7616 58.8454V58.8454ZM62.7084 59.8386L62.2891 59.4019L62.4167 59.2798C62.55 59.1522 62.6837 59.0255 62.8174 58.8995L63.2329 59.3401C63.1 59.4653 62.9674 59.5909 62.8352 59.7173L62.7084 59.8386ZM61.6769 60.8524L61.2475 60.4257C61.4191 60.2529 61.5919 60.081 61.7654 59.9105L62.1898 60.3426C62.0178 60.5115 61.847 60.6812 61.6769 60.8524ZM60.674 61.8913L60.2322 61.4773C60.3988 61.2996 60.5669 61.1229 60.7366 60.9474L61.1718 61.3683C61.0044 61.5415 60.8386 61.7158 60.674 61.8913V61.8913ZM59.7062 62.9607L59.2502 62.5626C59.4106 62.3786 59.5729 62.1966 59.7368 62.0153L60.1855 62.4219C60.0239 62.6001 59.8643 62.7798 59.7062 62.9607V62.9607ZM58.7814 64.0648L58.3091 63.6857C58.4621 63.4952 58.6171 63.3066 58.774 63.1191L59.2378 63.5083C59.0836 63.6923 58.9313 63.8778 58.7814 64.0648V64.0648ZM57.9068 65.2069L57.4175 64.8509C57.5582 64.6577 57.7058 64.4598 57.8565 64.2627L58.3373 64.631C58.1893 64.8239 58.0447 65.0175 57.9068 65.2069V65.2069ZM57.0928 66.3903L56.5846 66.061C56.7164 65.8581 56.8536 65.6525 56.9927 65.4504L57.4917 65.7936C57.3556 65.9911 57.2215 66.192 57.0928 66.3903V66.3903ZM56.3481 67.6166L55.8213 67.3183C55.9411 67.1073 56.0663 66.8935 56.1939 66.6837L56.711 66.9983C56.5869 67.2027 56.4648 67.411 56.3481 67.6166ZM55.6837 68.8855L55.1376 68.6234C55.2427 68.4047 55.3544 68.1832 55.4684 67.9649L56.0049 68.2458C55.894 68.458 55.7857 68.6733 55.6837 68.8855V68.8855ZM55.1109 70.1968L54.5478 69.9754C54.6367 69.7493 54.7318 69.5201 54.8303 69.294L55.3853 69.5363C55.2895 69.7554 55.1975 69.9781 55.1109 70.1968V70.1968ZM54.6386 71.546L54.0597 71.3683C54.1316 71.1344 54.2093 70.8983 54.2904 70.6668L54.8617 70.867C54.7832 71.0911 54.7082 71.3195 54.6386 71.546ZM54.275 72.9265L53.6836 72.7967C53.7362 72.5571 53.7946 72.3151 53.8572 72.0782L54.4427 72.2328C54.382 72.4616 54.3256 72.695 54.275 72.9265V72.9265ZM54.0303 74.331L53.4297 74.2541C53.461 74.0114 53.4981 73.7652 53.5406 73.5221L54.137 73.6265C54.096 73.8603 54.0601 74.0972 54.0303 74.331V74.331ZM53.9159 75.7498L53.3111 75.7305C53.3188 75.4862 53.3327 75.2373 53.3528 74.9904L53.9561 75.0391C53.9372 75.2764 53.9237 75.5152 53.9159 75.7498ZM53.3389 77.2138C53.3215 76.9696 53.3103 76.7199 53.3057 76.4722L53.9113 76.4609C53.9155 76.6979 53.926 76.9367 53.943 77.1705L53.3389 77.2138ZM53.5252 78.6875C53.4807 78.4444 53.4425 78.1974 53.4119 77.9528L54.0125 77.8774C54.0419 78.1109 54.0783 78.3466 54.1208 78.5785L53.5252 78.6875" fill="#7C8C9C"/>
<path d="M12.8047 71.1298C12.5732 71.0583 12.3417 70.9883 12.1113 70.9184L12.2868 70.339C12.5179 70.409 12.7506 70.4793 12.9832 70.5512L12.8047 71.1298ZM14.1783 71.5735C13.951 71.4954 13.723 71.4201 13.4942 71.3466L13.6797 70.77C13.912 70.845 14.1442 70.9219 14.375 71.0011L14.1783 71.5735ZM15.5217 72.0771C15.311 71.9901 15.0865 71.902 14.855 71.8154L15.0668 71.2485C15.3049 71.3373 15.5356 71.4278 15.7528 71.5174L15.5217 72.0771ZM16.8141 72.6777C16.6112 72.571 16.3963 72.4651 16.176 72.3631L16.4303 71.8135C16.6599 71.9198 16.8836 72.0303 17.0958 72.1416L16.8141 72.6777ZM18.023 73.4097C17.8359 73.2787 17.6369 73.1492 17.4313 73.0251L17.7443 72.5069C17.9612 72.6379 18.1718 72.7747 18.3704 72.9138L18.023 73.4097ZM19.1079 74.3001C18.9424 74.1401 18.7662 73.9832 18.5842 73.8341L18.9676 73.3656C19.1627 73.5256 19.3517 73.6934 19.5287 73.865L19.1079 74.3001ZM20.0312 75.3556C19.8901 75.1655 19.7413 74.9815 19.5902 74.8084L20.0462 74.4103C20.2078 74.595 20.3663 74.7914 20.517 74.9939L20.0312 75.3556ZM20.7949 76.5429C20.6785 76.3334 20.5564 76.129 20.4323 75.9354L20.9417 75.6088C21.0728 75.8129 21.2014 76.0281 21.324 76.2488L20.7949 76.5429ZM21.414 77.8202C21.3209 77.5999 21.2223 77.382 21.1211 77.1725L21.6664 76.9089C21.7719 77.1273 21.8747 77.3549 21.9717 77.5849L21.414 77.8202ZM21.913 79.1583C21.8364 78.9268 21.7572 78.6995 21.6768 78.4835L22.2446 78.2728C22.3273 78.4958 22.4092 78.73 22.4881 78.9689L21.913 79.1583ZM22.3226 80.5353C22.2562 80.2895 22.192 80.0634 22.1271 79.8431L22.7072 79.6711C22.7741 79.8956 22.8394 80.1268 22.907 80.3772L22.3226 80.5353ZM22.6778 81.9355C22.6214 81.7013 22.5638 81.4671 22.5047 81.2333L23.0917 81.0853C23.1513 81.321 23.2092 81.5572 23.2664 81.7937L22.6778 81.9355Z" fill="#7C8C9C"/>
<path d="M60.362 89.1622H59.1894V87.9896C59.1894 87.886 59.1055 87.8022 59.0019 87.8022H58.3225C58.2189 87.8022 58.1354 87.886 58.1354 87.9896V89.1622H56.9625C56.8593 89.1622 56.7754 89.2461 56.7754 89.3497V90.0291C56.7754 90.1323 56.8593 90.2162 56.9625 90.2162H58.1354V91.3891C58.1354 91.4923 58.2189 91.5762 58.3225 91.5762H59.0019C59.1055 91.5762 59.1894 91.4923 59.1894 91.3891V90.2162H60.362C60.4655 90.2162 60.5494 90.1323 60.5494 90.0291V89.3497C60.5494 89.2461 60.4655 89.1622 60.362 89.1622Z" fill="white"/>
</svg>
