<svg width="48" height="48" viewBox="0 0 48 48" fill="none" xmlns="http://www.w3.org/2000/svg">
<path d="M0 10.5469C0 4.722 4.722 0 10.5469 0H37.4531C43.278 0 48 4.722 48 10.5469V37.4531C48 43.278 43.278 48 37.4531 48H10.5469C4.722 48 0 43.278 0 37.4531V10.5469Z" fill="#FFFC00"/>
<path d="M38.7721 32.1562C33.4404 29.5732 32.5906 25.5851 32.5528 25.2893C32.5071 24.931 32.4552 24.6493 32.8501 24.2848C33.231 23.9327 34.9209 22.8859 35.3897 22.5584C36.1647 22.0161 36.506 21.4747 36.2545 20.8091C36.0785 20.3487 35.6501 20.1752 35.1989 20.1752C35.0565 20.1757 34.9146 20.1916 34.7757 20.2228C33.9242 20.4076 33.0973 20.8346 32.6188 20.95C32.5613 20.9648 32.5022 20.9728 32.4429 20.9737C32.1878 20.9737 32.091 20.8602 32.1156 20.5529C32.1754 19.6215 32.3021 17.8035 32.1552 16.1053C31.9538 13.7687 31.2008 12.6111 30.3079 11.5872C29.876 11.0907 27.8703 8.95751 23.9998 8.95751C20.1293 8.95751 18.1263 11.0907 17.697 11.581C16.8015 12.6049 16.0494 13.7626 15.8497 16.0991C15.7028 17.7973 15.8347 19.6144 15.8893 20.5467C15.9069 20.839 15.8172 20.9676 15.5621 20.9676C15.5027 20.9665 15.4436 20.9586 15.3861 20.9438C14.9085 20.8285 14.0816 20.4015 13.2301 20.2166C13.0912 20.1854 12.9493 20.1695 12.8069 20.1691C12.3539 20.1691 11.9273 20.3451 11.7513 20.8029C11.4998 21.4685 11.8393 22.0099 12.6169 22.5522C13.0858 22.8797 14.7756 23.9256 15.1565 24.2786C15.5506 24.6431 15.4996 24.9248 15.4539 25.2831C15.416 25.5834 14.5654 29.5714 9.23461 32.1501C8.92233 32.3015 8.39101 32.6219 9.32785 33.1396C10.7987 33.9531 11.7777 33.8659 12.5386 34.3563C13.1843 34.7727 12.8025 35.6707 13.2723 35.9946C13.8493 36.3935 15.555 35.9665 17.7586 36.6945C19.6059 37.3038 20.7283 39.0249 24.0042 39.0249C27.2801 39.0249 28.4351 37.2958 30.2498 36.6945C32.449 35.9665 34.1582 36.3935 34.7361 35.9946C35.205 35.6707 34.8241 34.7727 35.4698 34.3563C36.2307 33.8659 37.2089 33.9531 38.6806 33.1396C39.6157 32.6281 39.0843 32.3076 38.7721 32.1562Z" fill="white"/>
<path d="M41.0918 31.8525C40.8525 31.201 40.3968 30.8524 39.8778 30.5636C39.7802 30.5064 39.6904 30.4606 39.6139 30.4254C39.4591 30.3453 39.3008 30.2678 39.1433 30.1859C37.5256 29.3276 36.2624 28.2447 35.3862 26.9611C35.1374 26.5998 34.9216 26.2167 34.7414 25.8167C34.6667 25.6027 34.6702 25.4812 34.7238 25.3703C34.7771 25.2848 34.8475 25.2114 34.9306 25.1546C35.2085 24.9706 35.4953 24.784 35.6897 24.6581C36.0363 24.4336 36.3108 24.2558 36.4876 24.1299C37.1517 23.665 37.6162 23.1711 37.9065 22.6191C38.109 22.2378 38.2271 21.8172 38.2528 21.3861C38.2784 20.955 38.211 20.5234 38.0551 20.1206C37.6153 18.9621 36.5219 18.2428 35.1971 18.2428C34.9177 18.2425 34.639 18.272 34.3658 18.3308C34.2928 18.3467 34.2198 18.3634 34.1485 18.3819C34.1609 17.5896 34.1433 16.7532 34.0729 15.9301C33.8231 13.0363 32.8106 11.5194 31.755 10.3098C31.079 9.55175 30.2828 8.91046 29.3983 8.41167C27.7965 7.49609 25.98 7.03125 23.9998 7.03125C22.0197 7.03125 20.212 7.49609 18.6083 8.41167C17.7217 8.91061 16.9239 9.55319 16.2473 10.3133C15.1917 11.5229 14.1792 13.0424 13.9294 15.9336C13.859 16.7567 13.8414 17.5975 13.8529 18.3854C13.7816 18.3669 13.7095 18.3502 13.6365 18.3344C13.3633 18.2756 13.0846 18.2461 12.8052 18.2463C11.4795 18.2463 10.3843 18.9656 9.94627 20.1242C9.78968 20.5271 9.7216 20.959 9.74664 21.3905C9.77169 21.8221 9.88928 22.2432 10.0914 22.6253C10.3826 23.1773 10.847 23.6712 11.5112 24.136C11.6871 24.2593 11.9625 24.4371 12.3091 24.6642C12.4964 24.7857 12.77 24.9636 13.0383 25.1414C13.1322 25.2021 13.212 25.2823 13.2723 25.3765C13.3286 25.4918 13.3303 25.6159 13.2468 25.8448C13.069 26.2365 12.8568 26.6116 12.6125 26.9655C11.7557 28.2201 10.5295 29.2836 8.96368 30.1349C8.13415 30.5751 7.27208 30.8691 6.9079 31.8595C6.63344 32.607 6.81289 33.4574 7.51047 34.174C7.76649 34.4415 8.06343 34.6665 8.39014 34.8405C9.06994 35.2144 9.7928 35.5038 10.5427 35.7024C10.6974 35.7423 10.8443 35.8081 10.9772 35.8969C11.2315 36.1197 11.1954 36.4551 11.5341 36.9463C11.7041 37.2002 11.9201 37.42 12.1709 37.5943C12.8817 38.0855 13.6805 38.1163 14.5267 38.1489C15.2911 38.178 16.1576 38.2114 17.1472 38.538C17.5571 38.6736 17.9829 38.936 18.4764 39.2423C19.6613 39.9713 21.2834 40.9688 23.9981 40.9688C26.7127 40.9688 28.3463 39.966 29.54 39.2344C30.0299 38.9333 30.4531 38.6736 30.8516 38.5416C31.8412 38.2141 32.7076 38.1815 33.4721 38.1524C34.3183 38.1199 35.1171 38.0891 35.8278 37.5978C36.1249 37.3905 36.3725 37.1199 36.5527 36.8055C36.7963 36.3908 36.7902 36.1012 37.0189 35.8987C37.1436 35.8141 37.2815 35.751 37.4271 35.712C38.1872 35.5129 38.9199 35.2207 39.6086 34.8422C39.9557 34.6559 40.2682 34.4111 40.5323 34.1186L40.5411 34.108C41.1956 33.4072 41.3601 32.5814 41.0918 31.8525ZM38.6788 33.1502C37.2071 33.9636 36.229 33.8765 35.468 34.3668C34.8215 34.7833 35.2041 35.6812 34.7344 36.0052C34.1573 36.404 32.4517 35.977 30.2481 36.7051C28.4307 37.3064 27.2713 39.0355 24.0025 39.0355C20.7336 39.0355 19.6015 37.3099 17.7542 36.7007C15.555 35.9726 13.8458 36.3996 13.2679 36.0008C12.799 35.6768 13.1799 34.7788 12.5342 34.3624C11.7725 33.8721 10.7943 33.9592 9.32346 33.1502C8.38662 32.6325 8.91794 32.312 9.23022 32.1606C14.561 29.5776 15.4116 25.5895 15.4495 25.2937C15.4952 24.9354 15.5462 24.6537 15.1521 24.2892C14.7712 23.9371 13.0814 22.8903 12.6125 22.5628C11.8367 22.0205 11.4954 21.4791 11.7469 20.8135C11.9229 20.3531 12.3522 20.1796 12.8025 20.1796C12.9449 20.1801 13.0868 20.196 13.2257 20.2272C14.0772 20.412 14.9041 20.839 15.3817 20.9544C15.4392 20.9691 15.4983 20.9771 15.5577 20.9781C15.8128 20.9781 15.9025 20.8496 15.8849 20.5573C15.8304 19.625 15.6984 17.8079 15.8453 16.1097C16.0468 13.7731 16.7989 12.6155 17.6926 11.5916C18.1219 11.0995 20.139 8.96631 23.9963 8.96631C27.8536 8.96631 29.876 11.0907 30.3053 11.581C31.1999 12.6049 31.9529 13.7626 32.1526 16.0991C32.2995 17.7973 32.1728 19.6153 32.113 20.5467C32.0928 20.854 32.1851 20.9676 32.4402 20.9676C32.4996 20.9666 32.5587 20.9586 32.6162 20.9438C33.0947 20.8285 33.9216 20.4015 34.7731 20.2166C34.912 20.1854 35.0539 20.1695 35.1962 20.1691C35.6493 20.1691 36.0759 20.3451 36.2518 20.8029C36.5034 21.4685 36.1639 22.0099 35.3871 22.5522C34.9183 22.8797 33.2284 23.9256 32.8475 24.2786C32.4525 24.6431 32.5044 24.9248 32.5502 25.2831C32.588 25.5834 33.4378 29.5714 38.7694 32.1501C39.0844 32.3076 39.6157 32.6281 38.6788 33.1502Z" fill="black"/>
</svg>
